<svg xmlns="http://www.w3.org/2000/svg" viewBox="0 0 1000 600" preserveAspectRatio="none" role="img" aria-labelledby="title desc">
<title id="title">Afrique et Asie</title>
<desc id="desc">Fond cartographique de repérage géographique avec côtes et frontières contemporaines simplifiées.</desc>
<style>
  .sea{fill:#dceff4}
  .graticule{stroke:#7394a0;stroke-opacity:.18;stroke-width:1}
  .country{fill:#f4ead2;stroke:#607786;stroke-width:1.25;vector-effect:non-scaling-stroke}
  .map-label{font-family:Arial,sans-serif;font-size:18px;font-weight:700;fill:#334b5a}
</style>
<rect class="sea" width="1000" height="600"/>
<line class="graticule" x1="31.2" y1="0" x2="31.2" y2="600"/><line class="graticule" x1="93.8" y1="0" x2="93.8" y2="600"/><line class="graticule" x1="156.2" y1="0" x2="156.2" y2="600"/><line class="graticule" x1="218.8" y1="0" x2="218.8" y2="600"/><line class="graticule" x1="281.2" y1="0" x2="281.2" y2="600"/><line class="graticule" x1="343.8" y1="0" x2="343.8" y2="600"/><line class="graticule" x1="406.2" y1="0" x2="406.2" y2="600"/><line class="graticule" x1="468.8" y1="0" x2="468.8" y2="600"/><line class="graticule" x1="531.2" y1="0" x2="531.2" y2="600"/><line class="graticule" x1="593.8" y1="0" x2="593.8" y2="600"/><line class="graticule" x1="656.2" y1="0" x2="656.2" y2="600"/><line class="graticule" x1="718.8" y1="0" x2="718.8" y2="600"/><line class="graticule" x1="781.2" y1="0" x2="781.2" y2="600"/><line class="graticule" x1="843.8" y1="0" x2="843.8" y2="600"/><line class="graticule" x1="906.2" y1="0" x2="906.2" y2="600"/><line class="graticule" x1="968.8" y1="0" x2="968.8" y2="600"/><line class="graticule" x1="0" y1="588.0" x2="1000" y2="588.0"/><line class="graticule" x1="0" y1="528.0" x2="1000" y2="528.0"/><line class="graticule" x1="0" y1="468.0" x2="1000" y2="468.0"/><line class="graticule" x1="0" y1="408.0" x2="1000" y2="408.0"/><line class="graticule" x1="0" y1="348.0" x2="1000" y2="348.0"/><line class="graticule" x1="0" y1="288.0" x2="1000" y2="288.0"/><line class="graticule" x1="0" y1="228.0" x2="1000" y2="228.0"/><line class="graticule" x1="0" y1="168.0" x2="1000" y2="168.0"/><line class="graticule" x1="0" y1="108.0" x2="1000" y2="108.0"/><line class="graticule" x1="0" y1="48.0" x2="1000" y2="48.0"/>
<g><path class="country" d="M 368.15,353.70 L 391.87,366.58 L 392.29,370.06 L 401.26,376.06 L 398.38,383.45 L 398.75,386.85 L 402.75,389.04 L 402.94,390.60 L 401.22,394.22 L 401.17,398.91 L 405.94,408.59 L 408.23,409.90 L 403.26,413.38 L 396.42,415.71 L 392.67,415.61 L 390.45,417.41 L 386.09,417.57 L 384.46,418.33 L 376.95,416.63 L 372.25,417.12 L 370.50,408.96 L 367.12,404.50 L 361.00,403.38 L 348.38,398.04 L 345.00,390.48 L 341.38,387.12 L 340.12,383.64 L 340.75,380.52 L 339.62,375.00 L 342.21,374.71 L 348.45,368.16 L 348.39,366.21 L 347.05,364.85 L 346.69,362.48 L 348.49,361.72 L 348.85,358.19 L 346.37,354.81 L 348.56,354.09 L 368.15,353.70 Z"/><path class="country" d="M 102.09,182.46 L 101.95,192.71 L 81.44,192.40 L 81.64,207.75 L 75.79,208.29 L 74.26,211.37 L 75.44,220.04 L 50.97,220.00 L 49.60,222.00 L 49.87,219.47 L 64.06,219.00 L 64.81,216.83 L 67.37,214.14 L 69.43,205.85 L 78.12,199.38 L 81.06,191.81 L 83.01,191.38 L 85.05,186.70 L 90.30,186.06 L 95.40,186.83 L 97.42,185.47 L 101.28,185.28 L 101.14,182.06 L 102.09,182.46 Z"/><path class="country" d="M 697.49,56.70 L 692.30,57.27 L 692.00,63.28 L 688.53,65.99 L 676.13,64.02 L 671.62,74.76 L 668.42,76.10 L 656.04,78.49 L 661.66,88.92 L 657.38,90.48 L 657.87,93.90 L 654.02,93.02 L 650.89,90.86 L 631.25,90.07 L 628.98,90.73 L 620.08,88.21 L 616.53,89.45 L 615.56,92.99 L 605.28,90.93 L 601.16,91.77 L 599.76,94.40 L 587.94,99.69 L 585.20,103.99 L 582.87,104.03 L 581.16,101.18 L 573.21,100.99 L 571.94,96.07 L 568.90,96.03 L 569.36,90.01 L 561.88,85.63 L 543.83,86.97 L 537.86,81.57 L 521.89,74.48 L 505.81,78.02 L 506.05,100.15 L 502.85,100.44 L 498.47,95.74 L 494.25,94.06 L 487.15,95.30 L 484.39,97.30 L 484.04,95.84 L 485.58,93.34 L 484.38,91.25 L 477.14,89.20 L 474.32,83.81 L 470.87,82.30 L 470.66,80.34 L 476.74,80.91 L 476.98,76.52 L 482.30,75.55 L 487.76,76.45 L 488.88,70.59 L 487.77,66.88 L 481.51,67.17 L 476.20,65.71 L 463.13,69.60 L 459.96,68.63 L 460.59,65.55 L 456.61,61.54 L 451.97,61.70 L 446.67,57.64 L 450.27,53.09 L 448.45,51.86 L 453.43,45.27 L 459.86,48.75 L 460.64,44.37 L 473.54,37.84 L 483.30,37.69 L 504.48,44.27 L 511.11,41.74 L 521.02,41.62 L 529.01,44.73 L 530.83,42.95 L 539.61,43.21 L 541.18,40.36 L 531.05,36.24 L 537.05,33.31 L 535.87,31.68 L 541.87,30.12 L 537.36,26.01 L 540.23,23.96 L 563.62,21.87 L 566.67,20.39 L 582.31,18.18 L 587.93,15.69 L 599.16,16.98 L 601.13,23.20 L 607.65,21.74 L 615.68,23.79 L 615.16,27.06 L 621.16,26.72 L 636.82,21.06 L 634.53,22.94 L 642.51,27.57 L 656.47,42.81 L 659.80,39.67 L 668.41,43.13 L 677.39,41.58 L 680.84,42.66 L 683.85,46.13 L 688.22,47.30 L 690.88,49.84 L 698.93,49.04 L 702.25,52.71 L 697.49,56.70 Z"/><path class="country" d="M 505.81,78.02 L 521.89,74.48 L 537.86,81.57 L 543.83,86.97 L 561.88,85.63 L 569.36,90.01 L 568.90,96.03 L 571.94,96.07 L 573.21,100.99 L 581.16,101.18 L 582.87,104.03 L 585.20,103.99 L 587.94,99.69 L 599.76,94.40 L 601.62,94.99 L 596.38,98.88 L 600.99,101.14 L 605.44,99.64 L 612.85,102.80 L 604.84,107.12 L 597.51,106.69 L 596.61,105.02 L 597.92,102.24 L 589.56,103.63 L 587.57,107.48 L 584.60,110.80 L 579.38,110.52 L 577.76,113.16 L 582.35,114.59 L 583.70,119.06 L 580.19,125.13 L 575.47,123.86 L 571.99,123.82 L 572.16,120.15 L 563.85,117.58 L 557.31,114.65 L 546.09,107.68 L 543.02,101.49 L 540.92,100.40 L 534.16,100.68 L 531.77,99.45 L 531.10,94.66 L 522.68,91.49 L 517.42,94.98 L 512.08,97.04 L 513.10,100.07 L 506.05,100.15 L 505.81,78.02 Z"/><path class="country" d="M 991.64,369.23 L 989.80,372.15 L 987.40,372.68 L 985.98,370.48 L 985.96,367.87 L 981.19,364.92 L 987.92,362.76 L 992.38,362.88 L 991.85,361.29 L 982.70,361.28 L 980.23,357.70 L 974.64,356.60 L 972.00,353.63 L 980.42,352.17 L 983.63,350.22 L 993.66,352.68 L 996.39,364.62 L 1000.00,366.62 L 1000.00,374.17 L 991.64,369.23 Z M 937.30,401.36 L 938.05,404.36 L 933.97,408.84 L 928.62,410.16 L 927.87,409.44 L 928.44,407.40 L 931.13,403.74 L 937.30,401.36 Z M 994.45,384.85 L 995.56,382.70 L 996.87,380.67 L 998.29,382.43 L 998.28,385.29 L 995.06,389.37 L 994.45,384.85 Z M 889.46,328.59 L 894.05,334.27 L 892.97,337.03 L 899.98,342.59 L 892.57,343.29 L 890.49,347.39 L 890.76,352.82 L 884.75,356.93 L 884.59,362.90 L 882.18,372.08 L 881.26,369.94 L 874.16,372.64 L 871.68,368.97 L 867.22,368.64 L 864.11,366.71 L 856.68,368.87 L 854.40,365.97 L 850.30,366.30 L 845.15,365.60 L 844.19,357.56 L 841.07,355.89 L 838.07,350.76 L 837.20,345.51 L 837.93,339.95 L 841.65,335.96 L 842.69,339.97 L 846.96,343.36 L 850.99,342.14 L 854.98,342.57 L 858.63,339.54 L 861.62,339.01 L 867.54,340.69 L 872.63,339.42 L 875.84,331.07 L 878.24,328.98 L 880.41,322.16 L 887.60,322.16 L 893.01,323.17 L 889.46,328.59 Z M 971.70,366.56 L 973.97,371.15 L 968.69,368.68 L 955.62,368.36 L 957.10,365.06 L 964.82,364.81 L 971.70,366.56 Z M 944.90,369.64 L 943.68,367.06 L 950.00,366.78 L 951.56,368.75 L 949.22,370.75 L 944.90,369.64 Z M 956.28,338.23 L 959.97,338.76 L 960.55,341.21 L 960.22,346.45 L 957.00,345.86 L 956.05,349.51 L 958.62,352.68 L 956.88,353.40 L 954.35,349.60 L 952.50,341.93 L 953.75,337.14 L 955.83,334.95 L 956.28,338.23 Z M 931.73,342.50 L 937.91,338.14 L 939.00,339.48 L 933.98,345.43 L 929.28,346.59 L 923.27,345.41 L 907.39,346.58 L 906.51,351.12 L 912.10,356.45 L 915.47,353.74 L 927.13,351.69 L 926.61,354.46 L 923.89,353.59 L 921.18,357.10 L 915.68,359.43 L 921.59,367.12 L 920.45,369.18 L 926.07,376.10 L 926.01,380.04 L 922.68,381.81 L 920.23,379.70 L 923.25,374.79 L 917.11,377.11 L 915.56,375.45 L 916.37,373.13 L 911.86,369.61 L 912.33,363.77 L 908.16,365.59 L 908.94,381.17 L 904.98,382.04 L 902.29,380.28 L 904.09,374.76 L 903.12,368.97 L 900.49,368.92 L 898.55,364.81 L 901.13,360.88 L 902.02,356.12 L 906.47,344.60 L 911.79,340.14 L 916.67,341.92 L 924.55,342.75 L 931.73,342.50 Z M 899.80,405.35 L 905.63,404.17 L 911.10,407.82 L 910.72,409.44 L 908.09,409.55 L 899.80,405.35 Z M 918.80,398.76 L 924.40,396.57 L 923.48,399.90 L 914.09,401.60 L 905.78,400.86 L 905.76,398.67 L 910.72,397.42 L 914.64,399.22 L 918.80,398.76 Z M 899.24,397.68 L 900.79,400.23 L 889.24,402.25 L 885.88,402.20 L 888.02,398.74 L 891.45,398.70 L 893.13,396.57 L 895.38,398.17 L 899.24,397.68 Z M 835.15,388.67 L 847.12,389.26 L 848.50,386.79 L 860.09,389.68 L 862.37,393.57 L 871.74,394.66 L 879.41,398.22 L 872.28,400.51 L 865.40,398.09 L 853.26,397.81 L 835.59,393.85 L 832.99,394.60 L 821.59,392.13 L 820.50,389.55 L 814.78,389.11 L 819.07,383.38 L 826.66,383.73 L 834.29,386.53 L 835.15,388.67 Z M 809.62,358.69 L 811.80,362.04 L 816.39,362.57 L 819.43,366.37 L 817.86,373.83 L 817.61,383.11 L 810.69,383.24 L 805.43,378.22 L 797.40,373.32 L 789.99,364.80 L 782.14,351.90 L 776.65,346.90 L 772.51,337.06 L 766.87,333.28 L 763.61,328.15 L 758.90,324.79 L 752.38,318.18 L 751.83,315.12 L 765.53,316.52 L 771.06,322.39 L 779.34,328.95 L 785.26,335.40 L 791.61,335.50 L 796.86,339.61 L 800.48,344.63 L 805.24,347.37 L 802.74,352.27 L 806.32,354.36 L 808.56,354.51 L 809.62,358.69 Z"/><path class="country" d="M 340.75,380.52 L 340.12,383.64 L 341.38,387.12 L 345.00,390.48 L 348.38,398.04 L 345.91,397.43 L 335.84,399.16 L 334.06,402.99 L 335.46,405.64 L 333.58,418.76 L 339.63,422.16 L 341.35,421.07 L 341.87,427.54 L 337.09,427.49 L 332.22,421.63 L 327.43,420.80 L 326.03,417.65 L 322.21,419.55 L 317.20,418.71 L 315.11,415.99 L 308.22,415.58 L 307.86,413.71 L 302.85,413.21 L 294.72,414.51 L 295.05,407.37 L 292.97,405.14 L 292.51,401.45 L 293.43,397.84 L 292.17,395.52 L 292.05,391.75 L 284.47,391.80 L 285.01,389.64 L 281.82,389.66 L 281.49,390.70 L 277.61,390.93 L 275.10,395.93 L 271.65,395.08 L 265.46,396.41 L 261.63,391.33 L 258.29,383.26 L 239.85,383.19 L 233.27,384.60 L 232.39,382.74 L 233.98,382.11 L 234.18,379.49 L 235.20,377.95 L 237.47,376.69 L 239.11,377.30 L 241.25,375.00 L 244.66,375.06 L 245.06,376.76 L 247.39,377.82 L 256.29,369.21 L 256.08,364.27 L 258.79,358.45 L 265.77,352.46 L 266.49,350.55 L 267.67,346.27 L 267.34,342.87 L 268.12,337.55 L 271.21,330.60 L 272.14,322.79 L 274.58,319.74 L 277.92,317.81 L 287.05,322.06 L 296.28,323.83 L 299.01,319.74 L 301.86,320.34 L 308.82,317.35 L 311.28,318.62 L 313.31,318.44 L 314.24,316.98 L 316.57,316.46 L 325.28,317.23 L 327.34,316.60 L 331.12,321.55 L 333.93,322.28 L 335.60,321.27 L 338.49,321.66 L 341.97,320.40 L 343.46,322.96 L 348.96,326.95 L 348.58,333.96 L 351.09,334.77 L 346.68,338.50 L 342.97,344.42 L 342.62,349.23 L 341.17,351.52 L 341.12,356.05 L 339.32,357.72 L 339.09,361.29 L 338.23,361.75 L 337.66,365.04 L 339.23,367.76 L 340.75,380.52 Z"/><path class="country" d="M 412.46,353.15 L 412.38,331.29 L 417.84,324.49 L 419.55,322.60 L 423.56,322.48 L 429.13,318.25 L 437.27,317.99 L 454.93,299.98 L 462.11,291.29 L 462.18,279.54 L 470.37,277.92 L 473.33,275.87 L 475.69,275.85 L 475.28,284.15 L 469.19,299.51 L 459.97,315.97 L 454.63,322.68 L 447.28,330.87 L 425.85,346.25 L 419.01,353.51 L 416.16,358.10 L 412.46,353.15 Z"/><path class="country" d="M 392.29,370.06 L 391.87,366.58 L 368.15,353.70 L 368.08,347.34 L 372.95,340.94 L 375.22,336.56 L 371.74,326.67 L 368.78,322.50 L 376.86,314.96 L 380.11,315.97 L 380.11,319.34 L 382.24,321.31 L 386.59,321.31 L 394.51,326.41 L 397.94,326.30 L 403.50,327.47 L 405.34,324.97 L 411.05,322.46 L 413.57,324.49 L 417.84,324.49 L 412.38,331.29 L 412.46,353.15 L 416.16,358.10 L 411.78,360.50 L 410.24,363.00 L 407.89,363.44 L 407.01,367.67 L 405.00,370.09 L 403.78,374.08 L 401.26,376.06 L 392.29,370.06 Z"/><path class="country" d="M 305.04,296.00 L 302.87,294.27 L 302.47,292.41 L 303.48,289.91 L 303.46,287.46 L 299.86,283.71 L 299.23,279.69 L 296.93,277.92 L 296.86,274.44 L 295.55,272.12 L 293.36,272.47 L 295.60,267.77 L 294.90,265.28 L 296.95,263.44 L 295.65,262.04 L 300.15,253.92 L 305.54,254.33 L 305.31,228.00 L 312.50,227.98 L 312.50,216.00 L 386.66,216.00 L 388.68,221.89 L 387.31,222.98 L 388.22,229.15 L 390.51,236.32 L 396.31,240.01 L 393.15,243.43 L 388.55,244.42 L 386.58,246.26 L 383.27,259.07 L 383.93,261.47 L 382.94,266.62 L 380.40,272.53 L 376.63,275.50 L 373.32,282.54 L 370.36,284.22 L 368.51,290.50 L 368.59,295.89 L 368.52,291.21 L 367.66,291.10 L 367.01,286.05 L 363.79,283.68 L 363.04,279.35 L 363.79,274.92 L 360.90,274.51 L 360.47,275.85 L 356.71,276.16 L 358.21,277.91 L 358.75,281.52 L 352.21,289.14 L 348.99,289.76 L 343.73,286.25 L 341.37,287.49 L 340.72,289.24 L 337.51,290.37 L 337.29,291.61 L 331.07,291.61 L 330.21,290.37 L 325.70,290.17 L 323.45,291.20 L 321.73,290.68 L 317.44,285.53 L 312.94,286.36 L 311.22,289.14 L 309.61,294.49 L 305.54,296.28 L 309.80,298.62 L 305.04,296.00 Z"/><path class="country" d="M 305.54,254.33 L 300.15,253.92 L 295.65,262.04 L 296.95,263.44 L 294.90,265.28 L 295.60,267.77 L 293.36,272.47 L 295.55,272.12 L 296.86,274.44 L 296.93,277.92 L 299.23,279.69 L 299.15,281.15 L 295.19,282.17 L 292.02,284.60 L 287.51,291.14 L 281.62,293.92 L 275.59,293.55 L 273.83,294.10 L 274.44,296.21 L 268.53,300.65 L 260.66,302.95 L 258.07,301.47 L 256.91,303.02 L 251.75,303.47 L 252.73,301.84 L 249.87,295.22 L 247.15,294.20 L 243.46,290.70 L 244.82,287.87 L 247.67,288.47 L 252.92,288.11 L 249.52,282.65 L 249.33,274.69 L 246.85,270.84 L 247.47,268.02 L 243.47,267.88 L 243.48,264.02 L 240.88,261.80 L 243.58,253.89 L 251.55,248.24 L 251.88,240.43 L 254.29,228.26 L 255.65,225.67 L 253.04,223.62 L 252.94,221.71 L 250.61,220.15 L 249.07,210.82 L 255.38,207.54 L 305.24,230.52 L 305.54,254.33 Z"/><path class="country" d="M 460.28,73.16 L 454.22,74.15 L 448.01,80.34 L 453.69,86.04 L 453.08,90.08 L 459.90,97.15 L 456.17,99.57 L 455.10,101.09 L 452.33,100.68 L 448.04,97.04 L 442.35,95.45 L 440.44,92.98 L 434.61,91.73 L 430.82,92.67 L 429.72,91.56 L 421.22,88.68 L 406.73,86.68 L 405.97,87.39 L 398.00,82.32 L 390.87,80.06 L 385.47,76.53 L 390.02,75.57 L 395.21,70.55 L 391.71,68.18 L 400.92,65.73 L 400.76,64.42 L 395.15,65.39 L 395.34,62.72 L 398.57,61.05 L 404.61,60.61 L 405.60,58.61 L 404.22,55.30 L 406.75,52.16 L 406.68,50.39 L 397.47,48.44 L 393.82,48.51 L 389.96,45.70 L 385.16,46.65 L 377.23,44.54 L 377.36,43.36 L 375.14,40.75 L 370.16,40.46 L 369.64,38.60 L 371.20,37.39 L 367.20,33.99 L 358.83,34.27 L 357.25,35.63 L 354.91,35.39 L 351.91,29.56 L 353.11,29.00 L 358.15,29.20 L 360.59,27.89 L 358.78,26.29 L 354.57,25.24 L 354.95,24.15 L 352.40,23.06 L 348.48,19.13 L 349.82,17.51 L 349.21,14.69 L 343.10,13.26 L 339.82,13.98 L 338.93,12.49 L 332.35,10.99 L 330.35,7.44 L 329.81,4.53 L 326.80,3.15 L 329.48,1.25 L 329.07,0.00 L 1000.00,0.00 L 1000.00,57.16 L 989.83,58.90 L 984.42,61.27 L 974.92,61.26 L 972.39,55.62 L 964.99,51.36 L 954.11,49.44 L 951.80,43.56 L 943.41,31.24 L 937.93,29.03 L 928.57,27.25 L 912.52,28.49 L 907.36,31.48 L 910.79,32.90 L 910.86,36.22 L 907.39,38.14 L 901.75,44.50 L 901.80,47.14 L 893.00,50.93 L 885.49,48.67 L 878.04,49.17 L 874.76,47.16 L 871.02,46.51 L 861.86,50.74 L 847.89,53.22 L 834.22,52.30 L 830.43,49.24 L 824.31,46.35 L 818.04,45.56 L 804.23,47.46 L 795.35,44.94 L 794.16,40.44 L 781.14,38.20 L 774.13,35.72 L 767.66,41.93 L 770.20,45.47 L 764.12,49.64 L 755.09,48.14 L 748.85,47.92 L 744.67,45.12 L 738.15,45.03 L 732.72,43.19 L 723.21,46.01 L 711.28,51.18 L 702.25,52.71 L 698.93,49.04 L 690.88,49.84 L 688.22,47.30 L 683.85,46.13 L 680.84,42.66 L 677.39,41.58 L 668.41,43.13 L 659.80,39.67 L 656.47,42.81 L 642.51,27.57 L 634.53,22.94 L 636.82,21.06 L 621.16,26.72 L 615.16,27.06 L 615.68,23.79 L 607.65,21.74 L 601.13,23.20 L 599.16,16.98 L 587.93,15.69 L 582.31,18.18 L 566.67,20.39 L 563.62,21.87 L 540.23,23.96 L 537.36,26.01 L 541.87,30.12 L 535.87,31.68 L 537.05,33.31 L 531.05,36.24 L 541.18,40.36 L 539.61,43.21 L 530.83,42.95 L 529.01,44.73 L 521.02,41.62 L 511.11,41.74 L 504.48,44.27 L 483.30,37.69 L 473.54,37.84 L 460.64,44.37 L 459.86,48.75 L 453.43,45.27 L 448.45,51.86 L 450.27,53.09 L 446.67,57.64 L 451.97,61.70 L 456.61,61.54 L 460.59,65.55 L 459.96,68.63 L 463.13,69.60 L 460.28,73.16 Z M 1000.00,86.89 L 990.86,91.13 L 986.91,91.21 L 982.99,88.29 L 974.60,92.68 L 973.62,94.68 L 972.75,93.63 L 972.71,90.58 L 975.90,90.42 L 976.80,83.33 L 975.16,78.19 L 980.52,76.07 L 988.11,77.14 L 992.31,71.30 L 994.45,64.73 L 996.88,62.53 L 1000.00,57.40 L 1000.00,86.89 Z M 298.32,22.03 L 279.13,21.44 L 280.55,18.80 L 289.18,16.86 L 298.49,18.86 L 297.82,20.50 L 298.32,22.03 Z M 366.87,70.68 L 373.33,72.21 L 375.13,74.09 L 378.19,75.54 L 384.56,75.18 L 383.34,77.32 L 376.50,78.36 L 368.02,81.83 L 364.54,80.61 L 365.92,77.79 L 359.09,76.04 L 360.19,74.88 L 366.18,72.89 L 365.22,72.17 L 366.87,70.68 Z"/><path class="country" d="M 938.04,399.94 L 949.73,397.64 L 952.10,398.38 L 949.80,400.01 L 938.05,404.36 L 937.30,401.36 L 938.04,399.94 Z"/><path class="country" d="M 261.40,516.49 L 263.87,518.14 L 264.92,520.70 L 271.66,522.27 L 275.01,521.83 L 280.59,518.77 L 280.60,496.61 L 282.29,497.51 L 285.99,503.21 L 285.42,506.86 L 286.81,508.97 L 291.29,508.36 L 297.37,503.88 L 298.90,501.00 L 301.95,499.61 L 307.57,502.02 L 312.66,502.32 L 316.65,500.92 L 318.39,496.18 L 321.79,495.70 L 325.75,489.45 L 331.36,484.97 L 340.20,480.55 L 345.77,481.63 L 347.87,480.91 L 351.20,481.51 L 355.82,494.22 L 354.70,500.91 L 355.24,503.06 L 352.08,501.96 L 350.28,502.39 L 347.98,506.39 L 348.04,508.46 L 351.77,511.72 L 355.43,511.07 L 356.70,508.40 L 361.44,508.45 L 359.14,517.81 L 357.52,520.51 L 352.03,524.41 L 344.10,534.84 L 332.62,544.63 L 327.90,547.36 L 321.37,549.69 L 318.19,550.00 L 317.38,551.67 L 313.58,550.78 L 310.49,551.92 L 303.71,550.77 L 299.93,551.50 L 297.34,551.18 L 290.89,553.55 L 285.56,554.50 L 281.70,556.77 L 278.85,556.91 L 276.21,554.78 L 274.10,554.67 L 271.40,551.99 L 271.11,552.82 L 270.28,551.21 L 270.31,547.69 L 268.28,543.67 L 270.30,542.57 L 270.14,537.97 L 258.41,519.46 L 261.40,516.49 Z M 334.64,519.89 L 328.33,523.46 L 325.00,527.26 L 329.68,531.87 L 331.92,531.27 L 333.07,529.36 L 336.55,528.42 L 339.53,523.54 L 334.64,519.89 Z"/><path class="country" d="M 339.53,523.54 L 336.55,528.42 L 333.07,529.36 L 331.92,531.27 L 329.68,531.87 L 325.00,527.26 L 328.33,523.46 L 334.64,519.89 L 339.53,523.54 Z"/><path class="country" d="M 197.86,52.79 L 206.87,53.89 L 203.71,58.00 L 202.92,62.28 L 201.20,63.30 L 198.35,62.75 L 198.55,64.27 L 193.98,67.65 L 193.89,70.36 L 196.88,69.42 L 199.02,72.05 L 198.76,73.75 L 200.60,76.00 L 198.44,77.83 L 200.05,82.47 L 203.43,83.23 L 202.72,85.84 L 197.06,89.23 L 184.73,87.60 L 175.63,89.55 L 174.91,93.16 L 167.67,93.94 L 160.63,91.23 L 158.36,92.52 L 146.86,89.80 L 144.37,87.46 L 147.60,83.86 L 148.79,71.91 L 142.34,65.61 L 137.73,62.58 L 128.18,60.27 L 127.55,55.90 L 135.65,54.59 L 146.15,56.13 L 144.17,49.34 L 150.07,51.92 L 164.62,47.24 L 166.49,42.32 L 171.96,41.11 L 172.87,43.22 L 175.77,43.32 L 183.04,48.56 L 186.25,48.09 L 191.71,50.82 L 194.91,51.22 L 197.86,52.79 Z M 214.94,89.94 L 216.00,95.09 L 213.94,99.72 L 211.10,98.50 L 209.65,94.46 L 210.91,92.23 L 214.94,89.94 Z"/><path class="country" d="M 347.87,480.91 L 345.77,481.63 L 340.20,480.55 L 336.22,477.84 L 331.38,476.92 L 329.55,473.11 L 329.53,470.99 L 326.85,470.35 L 319.78,463.76 L 314.15,454.42 L 325.28,455.63 L 334.17,446.81 L 336.41,446.34 L 337.17,444.26 L 340.73,441.87 L 345.46,441.05 L 345.87,443.29 L 351.08,443.17 L 353.98,444.43 L 355.33,445.92 L 358.30,446.35 L 361.55,448.28 L 361.56,455.87 L 360.07,464.52 L 361.08,466.29 L 360.37,469.83 L 359.43,470.37 L 357.78,474.70 L 351.20,481.51 L 347.87,480.91 Z"/><path class="country" d="M 331.36,484.97 L 325.75,489.45 L 321.79,495.70 L 318.39,496.18 L 316.65,500.92 L 312.66,502.32 L 307.57,502.02 L 301.95,499.61 L 298.90,501.00 L 297.37,503.88 L 291.29,508.36 L 286.81,508.97 L 285.42,506.86 L 285.99,503.21 L 282.29,497.51 L 280.60,496.61 L 280.60,479.09 L 286.76,478.89 L 286.94,457.51 L 291.59,457.31 L 301.23,455.21 L 303.62,457.69 L 307.61,455.34 L 313.03,453.97 L 314.15,454.42 L 319.78,463.76 L 326.85,470.35 L 329.53,470.99 L 329.55,473.11 L 331.38,476.92 L 336.22,477.84 L 340.20,480.55 L 331.36,484.97 Z"/><path class="country" d="M 280.59,518.77 L 275.01,521.83 L 271.66,522.27 L 264.92,520.70 L 263.87,518.14 L 261.40,516.49 L 258.41,519.46 L 253.76,514.93 L 251.32,510.55 L 248.40,500.36 L 246.30,491.12 L 246.16,483.94 L 245.36,480.67 L 239.70,473.24 L 235.05,462.27 L 229.97,456.41 L 229.59,451.81 L 236.34,449.65 L 240.39,449.83 L 244.12,452.54 L 270.40,451.86 L 274.73,454.73 L 289.86,455.58 L 306.46,451.78 L 310.51,452.12 L 312.98,453.47 L 309.50,455.32 L 307.61,455.34 L 303.62,457.69 L 301.23,455.21 L 291.59,457.31 L 286.94,457.51 L 286.76,478.89 L 280.60,479.09 L 280.59,518.77 Z"/><path class="country" d="M 49.21,261.76 L 46.09,259.62 L 48.84,258.48 L 53.36,251.19 L 55.50,249.27 L 58.60,249.78 L 61.65,248.48 L 65.14,248.41 L 72.28,251.76 L 80.18,260.30 L 81.70,267.47 L 84.04,269.15 L 84.29,273.34 L 79.98,273.21 L 78.13,274.01 L 73.64,272.54 L 59.07,272.23 L 52.02,273.69 L 50.99,269.09 L 56.68,269.22 L 61.62,266.94 L 64.30,268.21 L 67.01,268.32 L 69.72,266.97 L 68.46,265.24 L 66.40,266.25 L 64.46,266.22 L 61.99,264.74 L 60.01,264.84 L 58.60,266.26 L 51.79,266.43 L 49.21,261.76 Z"/><path class="country" d="M 84.65,275.54 L 84.04,269.15 L 81.70,267.47 L 80.47,264.03 L 80.18,260.30 L 82.29,259.21 L 83.34,255.67 L 85.32,255.53 L 89.68,257.20 L 93.21,256.02 L 95.62,256.42 L 96.56,255.08 L 121.64,254.99 L 123.03,250.79 L 121.95,250.05 L 115.91,198.26 L 125.48,198.15 L 167.65,224.34 L 169.13,227.15 L 175.92,229.84 L 175.99,233.66 L 182.92,233.07 L 182.94,246.89 L 179.52,250.89 L 178.99,254.59 L 164.91,256.06 L 162.60,258.19 L 154.59,258.45 L 153.03,257.30 L 149.59,258.16 L 143.74,260.65 L 142.55,262.52 L 137.70,265.21 L 136.85,266.75 L 134.23,267.97 L 131.21,267.17 L 129.50,268.63 L 128.58,272.74 L 123.62,277.72 L 123.76,279.75 L 122.06,282.29 L 122.47,285.78 L 118.43,287.42 L 117.47,284.86 L 114.58,285.42 L 113.43,287.17 L 108.61,287.12 L 106.88,286.22 L 106.06,286.76 L 104.15,285.03 L 104.49,283.24 L 103.70,282.54 L 102.37,283.13 L 102.62,281.18 L 103.90,279.64 L 99.20,274.15 L 97.95,273.99 L 92.72,276.94 L 90.04,276.46 L 87.27,274.73 L 84.65,275.54 Z"/><path class="country" d="M 50.97,220.00 L 75.44,220.04 L 74.26,211.37 L 75.79,208.29 L 81.64,207.75 L 81.44,192.40 L 101.95,192.71 L 101.97,183.63 L 125.48,198.15 L 115.91,198.26 L 121.95,250.05 L 123.03,250.79 L 121.64,254.99 L 96.56,255.08 L 95.62,256.42 L 93.21,256.02 L 89.68,257.20 L 85.32,255.53 L 83.34,255.67 L 82.29,259.21 L 80.18,260.30 L 72.28,251.76 L 65.14,248.41 L 61.65,248.48 L 58.60,249.78 L 55.50,249.27 L 53.36,251.19 L 52.81,247.96 L 54.56,245.00 L 55.34,239.35 L 53.89,230.44 L 54.51,227.44 L 52.90,224.59 L 49.60,222.00 L 50.97,220.00 Z"/><path class="country" d="M 167.91,311.15 L 166.37,307.01 L 166.65,293.23 L 165.39,291.99 L 165.16,289.05 L 161.08,285.18 L 161.87,282.02 L 164.02,281.34 L 165.29,278.71 L 168.35,278.15 L 171.81,274.60 L 174.05,274.59 L 178.82,278.04 L 178.58,280.03 L 179.98,283.59 L 178.75,286.01 L 179.41,287.62 L 174.45,293.17 L 173.27,296.96 L 173.07,310.45 L 167.91,311.15 Z"/><path class="country" d="M 250.61,220.15 L 252.94,221.71 L 253.04,223.62 L 255.65,225.67 L 254.29,228.26 L 251.88,240.43 L 251.55,248.24 L 243.58,253.89 L 240.88,261.80 L 243.48,264.02 L 243.47,267.88 L 247.47,268.02 L 246.85,270.84 L 245.08,271.19 L 244.88,273.10 L 243.72,273.23 L 239.49,266.66 L 238.02,266.42 L 233.14,269.78 L 228.30,268.03 L 224.93,267.68 L 223.13,268.52 L 219.47,268.34 L 215.78,270.89 L 212.59,271.04 L 205.03,267.94 L 202.07,269.41 L 198.88,269.31 L 196.53,267.04 L 190.27,264.80 L 183.55,265.52 L 181.92,266.81 L 181.05,270.26 L 179.25,272.68 L 178.82,278.04 L 174.05,274.59 L 171.81,274.60 L 169.72,276.36 L 169.86,272.25 L 162.65,270.89 L 162.46,267.99 L 158.94,264.07 L 158.10,261.33 L 158.59,258.43 L 162.60,258.19 L 164.91,256.06 L 178.99,254.59 L 179.52,250.89 L 182.94,246.89 L 182.92,233.07 L 191.73,230.39 L 209.83,218.61 L 231.25,207.17 L 241.13,209.76 L 244.65,213.05 L 249.07,210.82 L 250.61,220.15 Z"/><path class="country" d="M 173.07,310.45 L 173.27,296.96 L 174.45,293.17 L 179.41,287.62 L 178.75,286.01 L 179.98,283.59 L 178.58,280.03 L 179.25,272.68 L 181.05,270.26 L 181.92,266.81 L 183.55,265.52 L 190.27,264.80 L 196.53,267.04 L 198.88,269.31 L 202.07,269.41 L 205.03,267.94 L 212.59,271.04 L 215.78,270.89 L 219.47,268.34 L 223.13,268.52 L 224.93,267.68 L 228.30,268.03 L 233.14,269.78 L 238.02,266.42 L 239.49,266.66 L 243.72,273.23 L 244.88,273.10 L 247.36,275.49 L 246.35,278.57 L 241.08,283.21 L 235.96,295.69 L 232.62,298.17 L 229.66,306.11 L 225.37,308.13 L 221.86,305.67 L 219.49,305.77 L 215.77,309.28 L 213.96,309.33 L 209.38,319.37 L 202.89,321.53 L 200.52,321.21 L 198.11,322.56 L 193.11,322.43 L 189.77,318.67 L 187.71,314.33 L 183.29,310.38 L 173.07,310.45 Z"/><path class="country" d="M 249.33,274.69 L 249.52,282.65 L 252.92,288.11 L 247.67,288.47 L 244.82,287.87 L 243.46,290.70 L 247.15,294.20 L 249.87,295.22 L 252.73,301.84 L 248.60,309.55 L 247.10,310.64 L 246.74,319.60 L 249.69,322.74 L 250.23,324.89 L 252.53,327.99 L 255.39,329.92 L 256.33,334.39 L 255.88,337.63 L 245.86,334.63 L 216.56,334.30 L 217.47,329.56 L 215.03,325.59 L 212.18,324.58 L 210.91,321.89 L 209.31,321.03 L 210.98,315.12 L 213.96,309.33 L 215.77,309.28 L 219.49,305.77 L 221.86,305.67 L 225.37,308.13 L 229.66,306.11 L 232.62,298.17 L 235.96,295.69 L 241.08,283.21 L 246.35,278.57 L 247.36,275.49 L 244.88,273.10 L 245.08,271.19 L 246.85,270.84 L 249.33,274.69 Z"/><path class="country" d="M 161.08,285.18 L 165.16,289.05 L 165.39,291.99 L 166.65,293.23 L 166.37,307.01 L 167.91,311.15 L 162.88,312.43 L 159.81,306.51 L 159.32,303.53 L 160.70,298.13 L 159.13,295.94 L 158.55,286.85 L 155.94,283.76 L 156.40,281.89 L 161.87,282.02 L 161.08,285.18 Z"/><path class="country" d="M 155.94,283.76 L 158.55,286.85 L 159.13,295.94 L 160.70,298.13 L 159.32,303.53 L 159.81,306.51 L 162.88,312.43 L 143.97,319.74 L 138.40,318.03 L 138.68,315.67 L 135.97,310.50 L 137.60,303.72 L 140.24,298.68 L 137.73,285.63 L 137.87,282.22 L 151.49,282.38 L 153.51,281.41 L 156.40,281.89 L 155.94,283.76 Z"/><path class="country" d="M 106.88,286.22 L 108.61,287.12 L 113.43,287.17 L 114.58,285.42 L 117.47,284.86 L 118.43,287.42 L 122.47,285.78 L 125.28,287.08 L 126.38,289.07 L 129.19,290.33 L 131.37,288.83 L 134.30,288.60 L 138.58,290.15 L 140.24,298.68 L 137.60,303.72 L 135.97,310.50 L 138.68,315.67 L 138.40,318.03 L 127.19,316.99 L 119.78,318.04 L 109.26,321.97 L 108.05,321.81 L 108.94,313.76 L 106.29,311.24 L 104.30,310.84 L 102.48,309.19 L 103.84,306.53 L 103.22,303.63 L 103.50,301.88 L 104.50,301.88 L 104.38,298.10 L 107.30,296.55 L 104.31,289.26 L 104.82,287.23 L 106.88,286.22 Z"/><path class="country" d="M 73.64,272.54 L 78.13,274.01 L 79.98,273.21 L 84.29,273.34 L 84.65,275.54 L 87.27,274.73 L 90.04,276.46 L 92.72,276.94 L 97.95,273.99 L 100.59,275.47 L 103.90,279.64 L 102.62,281.18 L 102.37,283.13 L 103.70,282.54 L 104.49,283.24 L 104.15,285.03 L 106.06,286.76 L 104.82,287.23 L 104.31,289.26 L 107.30,296.55 L 104.38,298.10 L 104.50,301.88 L 101.74,301.73 L 100.46,304.15 L 98.70,304.12 L 97.48,302.84 L 97.89,300.43 L 95.28,296.75 L 90.59,297.91 L 89.86,292.39 L 86.77,287.72 L 81.77,287.72 L 80.31,288.85 L 78.59,288.98 L 76.80,291.94 L 73.46,294.58 L 68.29,288.68 L 65.13,286.71 L 63.50,282.74 L 61.69,281.76 L 64.46,278.83 L 66.36,278.94 L 70.36,277.13 L 69.82,275.14 L 70.62,272.48 L 73.64,272.54 Z"/><path class="country" d="M 55.33,272.71 L 70.62,272.48 L 69.82,275.14 L 70.36,277.13 L 66.36,278.94 L 64.46,278.83 L 61.69,281.76 L 58.35,279.25 L 55.72,278.85 L 54.32,276.25 L 52.41,274.97 L 52.02,273.69 L 55.33,272.71 Z"/><path class="country" d="M 103.50,301.88 L 103.84,306.53 L 102.48,309.19 L 104.30,310.84 L 106.29,311.24 L 108.94,313.76 L 108.05,321.81 L 106.41,321.87 L 99.97,319.01 L 88.97,311.16 L 84.76,307.28 L 86.58,303.62 L 89.40,300.36 L 92.31,297.56 L 95.28,296.75 L 97.89,300.43 L 97.48,302.84 L 98.70,304.12 L 100.46,304.15 L 101.74,301.73 L 103.50,301.88 Z"/><path class="country" d="M 76.80,291.94 L 78.59,288.98 L 80.31,288.85 L 81.77,287.72 L 86.77,287.72 L 89.86,292.39 L 90.59,297.91 L 92.31,297.56 L 86.58,303.62 L 84.76,307.28 L 78.57,304.42 L 75.32,301.21 L 73.46,294.58 L 76.80,291.94 Z"/><path class="country" d="M 122.06,282.29 L 123.76,279.75 L 123.62,277.72 L 128.58,272.74 L 129.50,268.63 L 131.21,267.17 L 134.23,267.97 L 142.55,262.52 L 143.74,260.65 L 153.03,257.30 L 154.59,258.45 L 158.59,258.43 L 158.10,261.33 L 158.94,264.07 L 162.46,267.99 L 162.65,270.89 L 169.86,272.25 L 169.72,276.36 L 168.35,278.15 L 165.29,278.71 L 164.02,281.34 L 161.87,282.02 L 153.51,281.41 L 151.49,282.38 L 137.87,282.22 L 138.58,290.15 L 134.30,288.60 L 131.37,288.83 L 129.19,290.33 L 126.38,289.07 L 125.28,287.08 L 122.47,285.78 L 122.06,282.29 Z"/><path class="country" d="M 325.28,317.23 L 316.57,316.46 L 314.24,316.98 L 313.31,318.44 L 311.28,318.62 L 308.82,317.35 L 301.86,320.34 L 299.01,319.74 L 296.28,323.83 L 287.05,322.06 L 277.92,317.81 L 274.58,319.74 L 272.14,322.79 L 271.58,326.97 L 263.33,325.63 L 259.61,328.81 L 256.33,334.39 L 255.39,329.92 L 252.53,327.99 L 250.23,324.89 L 249.69,322.74 L 246.74,319.60 L 247.24,317.82 L 246.62,315.29 L 247.10,310.64 L 248.60,309.55 L 251.75,303.47 L 256.91,303.02 L 258.07,301.47 L 260.66,302.95 L 268.53,300.65 L 274.44,296.21 L 273.83,294.10 L 275.59,293.55 L 281.62,293.92 L 287.51,291.14 L 292.02,284.60 L 295.19,282.17 L 299.15,281.15 L 299.86,283.71 L 303.46,287.46 L 303.48,289.91 L 302.47,292.41 L 302.87,294.27 L 313.22,301.05 L 313.28,303.00 L 320.08,308.72 L 321.66,312.32 L 326.33,314.69 L 327.34,316.60 L 325.28,317.23 Z"/><path class="country" d="M 271.21,330.60 L 268.12,337.55 L 267.34,342.87 L 267.67,346.27 L 265.77,352.46 L 258.79,358.45 L 256.08,364.27 L 256.29,369.21 L 254.71,371.13 L 247.39,377.82 L 245.06,376.76 L 244.66,375.06 L 241.25,375.00 L 239.11,377.30 L 235.13,374.63 L 230.72,378.23 L 225.59,371.87 L 230.34,368.56 L 227.99,364.59 L 230.13,363.08 L 234.35,362.35 L 234.85,359.69 L 238.19,362.57 L 243.70,362.82 L 245.62,359.99 L 246.41,356.00 L 245.73,351.32 L 242.77,347.77 L 245.48,340.82 L 243.92,339.63 L 239.27,340.11 L 237.52,337.01 L 237.97,334.40 L 245.86,334.63 L 255.88,337.63 L 256.33,334.39 L 259.61,328.81 L 263.33,325.63 L 271.58,326.97 L 271.21,330.60 Z"/><path class="country" d="M 229.70,334.04 L 233.50,334.84 L 237.97,334.40 L 237.52,337.01 L 239.27,340.11 L 243.92,339.63 L 245.48,340.82 L 242.77,347.77 L 245.73,351.32 L 246.41,356.00 L 245.62,359.99 L 243.70,362.82 L 238.19,362.57 L 234.85,359.69 L 234.35,362.35 L 230.13,363.08 L 227.99,364.59 L 230.34,368.56 L 225.59,371.87 L 215.03,360.87 L 211.24,354.67 L 211.44,352.67 L 212.80,350.76 L 215.58,341.94 L 226.78,341.65 L 226.73,334.43 L 229.70,334.04 Z"/><path class="country" d="M 226.73,334.43 L 226.78,341.65 L 215.58,341.94 L 214.41,341.03 L 216.56,334.30 L 226.73,334.43 Z"/><path class="country" d="M 345.91,397.43 L 357.45,401.58 L 361.00,403.38 L 363.95,406.06 L 365.54,411.15 L 363.21,417.64 L 364.42,422.61 L 362.45,424.70 L 360.55,430.28 L 363.84,431.83 L 344.87,436.78 L 345.46,441.05 L 340.73,441.87 L 337.17,444.26 L 336.41,446.34 L 334.17,446.81 L 325.28,455.63 L 314.15,454.42 L 310.51,452.12 L 306.46,451.78 L 301.34,453.14 L 297.27,449.39 L 293.05,444.48 L 293.34,425.39 L 306.35,425.47 L 305.82,423.40 L 306.75,421.15 L 305.65,418.33 L 306.36,415.42 L 305.70,413.56 L 307.86,413.71 L 308.22,415.58 L 315.11,415.99 L 317.20,418.71 L 322.21,419.55 L 326.03,417.65 L 327.43,420.80 L 332.22,421.63 L 337.09,427.49 L 341.87,427.54 L 341.35,421.07 L 339.63,422.16 L 333.58,418.76 L 335.46,405.64 L 334.06,402.99 L 335.84,399.16 L 337.52,398.44 L 345.91,397.43 Z"/><path class="country" d="M 367.12,404.50 L 370.50,408.96 L 372.25,417.12 L 370.50,421.68 L 372.25,429.48 L 374.42,429.39 L 376.67,431.33 L 379.29,435.67 L 379.82,443.38 L 377.12,444.64 L 375.21,448.81 L 371.13,445.10 L 370.67,440.87 L 371.99,438.08 L 371.62,435.68 L 369.16,434.16 L 367.44,434.71 L 360.55,430.28 L 362.45,424.70 L 364.42,422.61 L 363.21,417.64 L 365.54,411.15 L 363.95,406.06 L 361.00,403.38 L 367.12,404.50 Z"/><path class="country" d="M 376.95,416.63 L 384.46,418.33 L 386.09,417.57 L 390.45,417.41 L 392.67,415.61 L 396.42,415.71 L 403.26,413.38 L 408.23,409.90 L 409.24,412.59 L 410.00,433.21 L 411.10,436.15 L 406.81,444.60 L 402.83,448.33 L 390.07,453.52 L 383.01,459.96 L 380.60,461.05 L 376.24,465.32 L 373.66,466.70 L 373.14,470.98 L 376.10,475.53 L 377.41,480.84 L 378.52,480.54 L 378.34,486.42 L 377.32,489.21 L 378.80,490.24 L 377.87,492.74 L 375.25,494.87 L 362.58,500.15 L 359.84,502.36 L 360.38,504.89 L 361.97,505.30 L 361.44,508.45 L 356.70,508.40 L 354.70,500.91 L 355.82,494.22 L 351.20,481.51 L 357.78,474.70 L 359.43,470.37 L 360.37,469.83 L 361.08,466.29 L 360.07,464.52 L 361.56,455.87 L 361.55,448.28 L 358.30,446.35 L 355.33,445.92 L 353.98,444.43 L 351.08,443.17 L 345.87,443.29 L 344.87,436.78 L 363.84,431.83 L 367.44,434.71 L 369.16,434.16 L 371.62,435.68 L 371.99,438.08 L 370.67,440.87 L 371.13,445.10 L 375.21,448.81 L 377.12,444.64 L 379.82,443.38 L 379.29,435.67 L 376.67,431.33 L 374.42,429.39 L 372.25,429.48 L 370.50,421.68 L 372.25,417.12 L 376.95,416.63 Z"/><path class="country" d="M 355.43,511.07 L 351.77,511.72 L 348.04,508.46 L 347.98,506.39 L 350.28,502.39 L 352.08,501.96 L 355.24,503.06 L 356.70,508.40 L 355.43,511.07 Z"/><path class="country" d="M 235.20,377.95 L 234.18,379.49 L 233.98,382.11 L 232.39,382.74 L 230.72,378.23 L 235.13,374.63 L 237.47,376.69 L 235.20,377.95 Z M 233.27,384.60 L 239.85,383.19 L 258.29,383.26 L 261.63,391.33 L 265.46,396.41 L 271.65,395.08 L 275.10,395.93 L 277.61,390.93 L 281.49,390.70 L 281.82,389.66 L 285.01,389.64 L 284.47,391.80 L 292.05,391.75 L 292.17,395.52 L 293.43,397.84 L 292.51,401.45 L 292.97,405.14 L 295.05,407.37 L 294.72,414.51 L 302.85,413.21 L 305.70,413.56 L 306.36,415.42 L 305.65,418.33 L 306.75,421.15 L 305.82,423.40 L 306.35,425.47 L 293.34,425.39 L 293.05,444.48 L 301.34,453.14 L 289.86,455.58 L 274.73,454.73 L 270.40,451.86 L 244.12,452.54 L 240.39,449.83 L 236.34,449.65 L 229.59,451.81 L 229.00,448.04 L 232.35,434.69 L 235.87,426.83 L 241.46,420.23 L 242.12,415.79 L 241.79,412.39 L 239.92,410.24 L 236.72,403.00 L 238.98,399.38 L 235.80,389.56 L 232.67,385.77 L 233.27,384.60 Z"/><path class="country" d="M 347.05,364.85 L 348.39,366.21 L 348.45,368.16 L 342.21,374.71 L 339.62,375.00 L 339.23,367.76 L 337.66,365.04 L 341.45,365.51 L 343.36,362.09 L 346.69,362.48 L 347.05,364.85 Z"/><path class="country" d="M 378.41,153.64 L 376.15,152.80 L 374.84,156.80 L 376.41,157.47 L 374.82,158.30 L 374.55,159.88 L 377.48,159.07 L 377.63,161.40 L 374.52,170.99 L 370.41,160.68 L 372.23,158.71 L 371.80,158.37 L 375.62,149.52 L 377.88,149.47 L 378.45,148.41 L 380.13,148.34 L 380.23,150.79 L 378.41,153.64 Z"/><path class="country" d="M 378.45,148.41 L 377.88,149.47 L 375.79,149.45 L 378.01,144.57 L 381.24,140.13 L 384.05,140.44 L 385.07,142.79 L 381.67,145.05 L 380.13,148.34 L 378.45,148.41 Z"/><path class="country" d="M 467.56,425.37 L 469.10,429.33 L 470.11,436.55 L 471.73,439.36 L 471.11,442.24 L 470.00,444.00 L 467.88,440.49 L 466.70,442.26 L 467.90,446.71 L 467.34,449.25 L 465.62,450.64 L 465.22,455.72 L 450.60,497.65 L 440.06,501.61 L 431.50,497.93 L 429.77,494.76 L 429.36,489.44 L 427.16,484.66 L 426.59,480.34 L 427.71,476.02 L 430.59,474.98 L 430.60,472.98 L 433.59,468.43 L 434.15,464.61 L 431.52,457.99 L 431.02,452.46 L 433.20,449.10 L 434.04,445.30 L 437.16,445.08 L 442.96,442.76 L 445.70,442.68 L 454.41,435.57 L 456.28,432.55 L 455.43,429.98 L 458.09,430.70 L 461.53,426.54 L 461.65,422.93 L 463.72,420.24 L 467.56,425.37 Z"/><path class="country" d="M 374.55,159.88 L 374.82,158.30 L 376.41,157.47 L 374.84,156.80 L 376.15,152.80 L 378.41,153.64 L 378.41,157.30 L 377.48,159.07 L 374.55,159.88 Z"/><path class="country" d="M 58.60,266.26 L 60.01,264.84 L 61.99,264.74 L 64.46,266.22 L 66.40,266.25 L 68.46,265.24 L 69.72,266.97 L 67.01,268.32 L 64.30,268.21 L 61.62,266.94 L 56.68,269.22 L 50.99,269.09 L 51.79,266.43 L 58.60,266.26 Z"/><path class="country" d="M 212.85,155.38 L 208.99,152.96 L 208.94,151.51 L 203.83,147.94 L 203.28,143.42 L 207.13,140.07 L 208.60,135.12 L 207.61,129.40 L 208.88,126.32 L 215.69,123.90 L 220.06,124.62 L 219.88,127.66 L 225.18,125.45 L 225.63,126.60 L 222.50,129.54 L 222.46,132.32 L 224.62,133.81 L 223.80,139.00 L 219.68,142.02 L 220.87,145.29 L 224.11,145.39 L 225.68,148.24 L 228.05,149.18 L 227.70,153.79 L 218.44,159.74 L 219.10,162.23 L 218.56,164.76 L 215.51,166.15 L 212.85,155.38 Z"/><path class="country" d="M 101.97,183.63 L 102.04,174.95 L 112.13,170.52 L 123.49,168.00 L 125.88,164.99 L 133.18,162.62 L 133.45,158.18 L 137.07,157.65 L 139.90,155.43 L 148.08,154.42 L 149.22,152.09 L 147.57,150.82 L 145.42,144.48 L 145.04,140.83 L 142.69,136.99 L 148.70,133.71 L 155.45,132.67 L 159.40,130.19 L 165.42,128.37 L 186.35,126.81 L 189.50,127.70 L 195.39,125.34 L 202.06,125.29 L 204.61,126.69 L 208.88,126.32 L 207.61,129.40 L 208.60,135.12 L 207.13,140.07 L 203.28,143.42 L 203.83,147.94 L 208.94,151.51 L 208.99,152.96 L 212.85,155.38 L 217.54,171.45 L 217.87,174.24 L 216.43,185.15 L 216.98,188.93 L 214.50,191.43 L 218.19,195.81 L 218.43,198.38 L 220.65,201.72 L 223.57,200.62 L 228.50,203.41 L 231.25,207.17 L 209.83,218.61 L 191.73,230.39 L 182.92,233.07 L 175.99,233.66 L 175.92,229.84 L 169.13,227.15 L 167.65,224.34 L 101.97,183.63 Z"/><path class="country" d="M 379.50,151.74 L 386.46,154.12 L 398.70,147.73 L 401.22,155.03 L 400.03,155.94 L 387.51,158.95 L 393.74,164.95 L 391.68,165.97 L 390.65,167.98 L 385.88,168.81 L 384.38,170.97 L 381.68,172.82 L 374.73,171.86 L 374.52,170.99 L 377.63,161.40 L 378.41,153.64 L 379.50,151.74 Z"/><path class="country" d="M 479.73,202.24 L 479.96,203.88 L 484.86,202.94 L 493.80,203.27 L 506.69,191.67 L 507.88,193.71 L 508.73,198.45 L 505.54,198.48 L 505.03,202.38 L 506.13,203.22 L 503.30,204.40 L 503.29,206.85 L 501.47,209.33 L 501.30,211.75 L 500.04,213.02 L 481.25,209.99 L 478.86,203.91 L 478.62,202.53 L 479.73,202.24 Z"/><path class="country" d="M 473.40,195.11 L 475.08,191.96 L 476.79,191.31 L 478.68,193.19 L 478.79,196.71 L 477.44,200.24 L 475.70,200.66 L 473.81,199.47 L 473.40,195.11 Z"/><path class="country" d="M 457.39,170.79 L 456.84,172.16 L 458.85,176.69 L 454.43,176.84 L 452.87,173.98 L 447.30,173.41 L 451.89,167.65 L 456.09,168.15 L 457.39,170.79 Z"/><path class="country" d="M 398.70,147.73 L 412.54,141.48 L 414.90,134.23 L 414.31,129.85 L 417.73,128.36 L 420.93,124.62 L 423.62,123.69 L 430.89,124.46 L 433.08,125.99 L 436.08,124.98 L 440.13,132.13 L 444.23,133.94 L 444.70,137.44 L 441.55,139.51 L 440.10,144.19 L 444.43,149.90 L 452.09,153.19 L 455.31,157.74 L 454.28,162.09 L 456.28,162.09 L 456.34,165.29 L 459.80,168.44 L 451.89,167.65 L 447.30,173.41 L 435.68,172.93 L 418.06,160.86 L 408.75,156.66 L 401.22,155.03 L 398.70,147.73 Z"/><path class="country" d="M 501.47,209.33 L 503.29,206.85 L 503.30,204.40 L 506.13,203.22 L 505.03,202.38 L 505.54,198.48 L 508.73,198.45 L 511.53,202.55 L 515.02,204.73 L 523.31,206.61 L 527.81,212.04 L 530.05,212.80 L 530.04,214.14 L 526.77,219.40 L 524.13,221.32 L 521.80,225.43 L 518.96,225.11 L 517.66,226.54 L 516.66,229.58 L 517.43,233.59 L 516.84,234.33 L 513.96,234.31 L 510.06,236.55 L 509.45,239.48 L 508.02,240.74 L 504.13,240.70 L 501.69,242.21 L 501.72,244.63 L 498.69,246.30 L 495.25,245.73 L 491.07,247.75 L 488.18,248.09 L 481.25,234.00 L 500.00,228.00 L 504.17,216.00 L 501.30,211.75 L 501.47,209.33 Z M 506.69,191.67 L 508.51,189.62 L 509.29,190.15 L 507.88,193.71 L 506.69,191.67 Z"/><path class="country" d="M 795.93,267.63 L 799.93,262.65 L 808.01,261.50 L 813.87,262.36 L 819.02,264.71 L 821.85,260.58 L 827.39,262.79 L 828.84,266.79 L 828.07,273.98 L 817.57,278.59 L 820.31,282.23 L 813.75,282.66 L 808.34,285.08 L 803.11,284.20 L 800.57,281.08 L 797.41,274.88 L 795.93,267.63 Z"/><path class="country" d="M 808.01,261.50 L 799.93,262.65 L 795.93,267.63 L 797.41,274.88 L 791.79,272.13 L 786.45,272.24 L 787.37,267.52 L 781.86,267.56 L 781.37,274.16 L 775.96,288.22 L 776.39,292.56 L 780.46,292.75 L 783.00,298.23 L 784.12,303.42 L 787.61,306.86 L 791.39,307.56 L 794.63,310.67 L 792.59,313.14 L 788.46,313.85 L 787.97,310.77 L 782.87,308.14 L 781.79,309.21 L 779.32,306.91 L 778.25,303.94 L 771.90,297.71 L 770.87,301.23 L 769.69,297.90 L 772.21,288.40 L 778.67,276.64 L 776.23,271.17 L 775.61,265.03 L 771.44,260.27 L 769.95,257.26 L 772.11,256.15 L 774.40,250.93 L 767.87,242.59 L 764.85,237.33 L 767.49,236.24 L 770.34,229.75 L 774.75,229.48 L 778.40,226.88 L 781.97,225.49 L 784.68,227.34 L 785.04,230.95 L 789.26,231.22 L 787.72,237.55 L 787.87,242.93 L 794.46,239.35 L 796.33,240.40 L 799.99,240.23 L 801.25,238.14 L 805.98,238.55 L 810.73,243.43 L 811.12,249.35 L 816.18,254.58 L 815.90,259.66 L 813.87,262.36 L 808.01,261.50 Z"/><path class="country" d="M 821.85,260.58 L 819.02,264.71 L 813.87,262.36 L 815.90,259.66 L 816.18,254.58 L 811.12,249.35 L 810.73,243.43 L 805.98,238.55 L 801.25,238.14 L 799.99,240.23 L 796.33,240.40 L 794.46,239.35 L 787.87,242.93 L 787.72,237.55 L 789.26,231.22 L 785.04,230.95 L 784.68,227.34 L 781.97,225.49 L 783.31,223.28 L 788.63,219.38 L 789.19,220.79 L 792.52,220.95 L 791.58,214.09 L 794.82,213.21 L 798.47,217.95 L 801.27,223.40 L 808.97,223.45 L 811.39,228.68 L 807.40,230.25 L 805.60,232.41 L 813.09,236.00 L 822.23,248.37 L 826.95,252.55 L 828.53,256.79 L 827.39,262.79 L 821.85,260.58 Z"/><path class="country" d="M 778.40,226.88 L 774.75,229.48 L 770.34,229.75 L 767.49,236.24 L 764.85,237.33 L 767.87,242.59 L 774.40,250.93 L 772.11,256.15 L 769.95,257.26 L 771.44,260.27 L 775.61,265.03 L 776.23,271.17 L 778.67,276.64 L 772.21,288.40 L 771.61,283.95 L 773.53,279.35 L 771.43,275.80 L 771.93,269.27 L 769.40,266.16 L 766.23,251.40 L 763.53,246.43 L 752.31,253.71 L 744.93,251.77 L 747.08,244.34 L 745.78,238.72 L 740.88,231.80 L 741.65,229.64 L 737.99,228.87 L 733.55,223.97 L 733.15,219.15 L 735.33,220.06 L 735.45,215.75 L 738.54,214.33 L 737.88,211.78 L 739.29,209.74 L 739.53,203.53 L 744.42,204.90 L 747.20,199.95 L 747.52,197.03 L 750.97,191.99 L 750.78,188.56 L 758.87,184.41 L 763.34,185.50 L 762.82,181.81 L 765.02,180.70 L 764.54,178.43 L 768.20,177.98 L 770.29,181.52 L 773.02,182.95 L 772.95,192.49 L 767.03,197.50 L 766.28,204.62 L 772.88,203.62 L 774.37,209.14 L 778.32,210.31 L 776.51,215.29 L 783.85,218.65 L 788.44,216.90 L 788.63,219.38 L 783.31,223.28 L 781.97,225.49 L 778.40,226.88 Z"/><path class="country" d="M 813.75,282.66 L 820.31,282.23 L 817.57,278.59 L 828.07,273.98 L 828.84,266.79 L 827.39,262.79 L 828.53,256.79 L 826.95,252.55 L 822.23,248.37 L 813.09,236.00 L 805.60,232.41 L 807.40,230.25 L 811.39,228.68 L 808.97,223.45 L 801.27,223.40 L 798.47,217.95 L 794.82,213.21 L 798.17,211.75 L 809.23,211.09 L 814.56,207.89 L 817.57,210.14 L 823.28,211.23 L 822.30,214.69 L 825.27,217.13 L 831.56,218.69 L 823.22,223.82 L 818.01,229.49 L 816.64,233.65 L 827.26,247.82 L 832.93,251.52 L 836.73,256.34 L 839.60,267.44 L 838.75,278.00 L 833.54,281.95 L 826.38,285.81 L 821.28,290.81 L 813.49,296.40 L 811.22,292.55 L 812.98,288.49 L 808.34,285.08 L 813.75,282.66 Z"/><path class="country" d="M 973.63,94.68 L 973.63,94.68 L 973.63,94.68 L 973.63,94.68 Z M 968.71,90.09 L 973.62,94.68 L 971.25,94.32 L 966.67,98.39 L 966.91,102.70 L 963.68,104.03 L 960.21,106.86 L 956.05,107.85 L 953.33,109.46 L 953.14,112.06 L 952.41,112.72 L 958.44,116.33 L 957.54,117.78 L 950.46,118.46 L 948.02,121.17 L 945.23,120.96 L 944.84,121.50 L 941.81,120.36 L 941.05,121.49 L 939.22,121.99 L 939.00,120.86 L 935.70,119.35 L 937.41,116.71 L 938.89,116.00 L 938.33,114.91 L 939.92,111.67 L 939.51,110.69 L 935.86,110.04 L 932.91,108.43 L 938.00,104.58 L 944.89,101.36 L 949.18,97.10 L 952.15,98.98 L 957.55,99.20 L 956.58,96.03 L 966.23,93.45 L 968.71,90.09 Z"/><path class="country" d="M 945.23,120.96 L 948.02,121.17 L 950.46,118.46 L 957.54,117.78 L 958.44,116.33 L 963.83,123.41 L 965.38,127.29 L 965.43,134.21 L 963.07,137.51 L 957.41,138.66 L 952.42,141.15 L 946.79,141.66 L 946.09,138.39 L 947.25,133.89 L 944.48,127.65 L 949.13,126.64 L 944.84,121.50 L 945.23,120.96 Z"/><path class="country" d="M 711.28,51.18 L 723.21,46.01 L 732.72,43.19 L 738.15,45.03 L 744.67,45.12 L 748.85,47.92 L 755.09,48.14 L 764.12,49.64 L 770.20,45.47 L 767.66,41.93 L 774.13,35.72 L 781.14,38.20 L 794.16,40.44 L 795.35,44.94 L 804.23,47.46 L 818.04,45.56 L 824.31,46.35 L 830.43,49.24 L 834.22,52.30 L 847.89,53.22 L 861.86,50.74 L 871.02,46.51 L 874.76,47.16 L 878.04,49.17 L 885.49,48.67 L 878.03,59.19 L 879.64,61.64 L 883.18,60.88 L 889.35,61.81 L 894.15,59.60 L 899.17,61.52 L 904.83,65.71 L 904.15,67.84 L 899.21,67.17 L 890.14,67.96 L 885.74,69.67 L 881.16,73.64 L 871.63,75.96 L 865.40,79.15 L 855.46,77.39 L 852.18,81.26 L 855.18,85.54 L 850.81,87.56 L 846.33,90.77 L 839.02,92.88 L 829.65,93.11 L 819.56,95.19 L 812.28,98.42 L 809.51,96.55 L 801.95,96.56 L 792.71,92.91 L 786.54,92.02 L 778.22,92.85 L 765.32,91.51 L 758.43,91.65 L 754.77,88.08 L 751.92,82.55 L 748.06,81.89 L 740.50,78.15 L 724.66,76.28 L 722.41,73.68 L 724.82,66.67 L 720.51,61.84 L 711.59,59.59 L 706.34,56.40 L 704.70,52.22 L 711.28,51.18 Z"/><path class="country" d="M 765.02,180.70 L 762.82,181.81 L 763.34,185.50 L 758.87,184.41 L 750.78,188.56 L 750.97,191.99 L 747.52,197.03 L 747.20,199.95 L 744.42,204.90 L 739.53,203.53 L 739.29,209.74 L 737.88,211.78 L 738.54,214.33 L 735.45,215.75 L 732.16,206.24 L 730.44,206.25 L 729.42,210.09 L 725.99,206.98 L 727.92,203.56 L 730.72,203.22 L 733.60,198.14 L 730.00,197.12 L 718.25,196.38 L 717.70,192.21 L 714.72,191.91 L 709.77,189.32 L 707.56,193.39 L 712.07,196.57 L 708.16,198.80 L 706.78,200.99 L 710.62,202.60 L 709.56,206.21 L 711.73,210.73 L 712.70,215.67 L 711.80,217.86 L 707.55,217.78 L 699.85,219.03 L 700.21,223.54 L 696.87,227.09 L 687.88,231.13 L 680.88,238.19 L 669.95,245.90 L 669.95,248.66 L 661.20,252.29 L 658.28,252.60 L 656.41,257.18 L 658.04,269.96 L 655.39,275.66 L 655.36,285.86 L 652.13,286.15 L 649.28,290.72 L 651.19,292.70 L 645.49,294.40 L 643.38,298.48 L 640.87,300.21 L 634.96,294.60 L 629.67,280.15 L 624.16,271.55 L 621.52,260.30 L 615.84,252.06 L 611.38,232.75 L 611.40,225.48 L 610.19,219.86 L 601.10,223.46 L 596.69,222.74 L 588.53,215.46 L 591.53,213.30 L 589.68,210.94 L 582.35,205.85 L 586.52,201.85 L 600.27,201.86 L 599.03,196.71 L 595.52,193.67 L 594.81,189.05 L 590.71,186.35 L 597.60,180.06 L 604.86,180.52 L 611.40,174.23 L 615.32,168.14 L 621.38,162.12 L 621.29,157.84 L 626.62,154.37 L 621.57,151.41 L 617.19,142.09 L 620.25,139.51 L 629.73,140.97 L 636.70,140.08 L 642.73,135.04 L 649.45,142.07 L 648.82,146.96 L 651.31,150.03 L 651.10,153.10 L 646.62,152.29 L 648.37,158.90 L 663.20,166.90 L 659.23,169.62 L 656.80,175.23 L 676.90,183.81 L 685.47,184.59 L 689.07,187.64 L 701.42,189.61 L 706.63,189.51 L 707.34,187.14 L 706.52,183.33 L 707.00,180.74 L 710.81,179.48 L 711.47,185.41 L 717.15,187.68 L 721.08,186.75 L 731.46,186.97 L 731.90,183.28 L 729.35,181.37 L 734.39,180.62 L 740.08,176.16 L 747.29,172.34 L 752.53,173.81 L 756.99,171.28 L 759.92,175.01 L 757.81,177.53 L 764.54,178.43 L 765.02,180.70 Z"/><path class="country" d="M 735.33,220.06 L 733.15,219.15 L 733.55,223.97 L 731.77,220.85 L 730.22,214.90 L 727.61,211.41 L 721.85,211.17 L 722.42,213.64 L 720.46,216.98 L 717.80,215.77 L 716.89,216.86 L 712.70,215.67 L 711.73,210.73 L 709.56,206.21 L 710.62,202.60 L 706.78,200.99 L 708.16,198.80 L 712.07,196.57 L 707.56,193.39 L 709.77,189.32 L 714.72,191.91 L 717.70,192.21 L 718.25,196.38 L 730.00,197.12 L 733.60,198.14 L 730.72,203.22 L 727.92,203.56 L 725.99,206.98 L 729.42,210.09 L 730.44,206.25 L 732.16,206.24 L 735.45,215.75 L 735.33,220.06 Z"/><path class="country" d="M 731.90,183.28 L 731.46,186.97 L 721.08,186.75 L 717.15,187.68 L 711.47,185.41 L 711.34,184.20 L 715.47,179.74 L 718.85,178.22 L 723.32,179.61 L 726.62,179.76 L 731.90,183.28 Z"/><path class="country" d="M 706.52,183.33 L 707.34,187.14 L 706.63,189.51 L 701.42,189.61 L 689.07,187.64 L 685.47,184.59 L 676.90,183.81 L 656.80,175.23 L 659.23,169.62 L 665.79,165.46 L 670.80,167.31 L 677.11,171.22 L 680.62,172.08 L 682.72,174.96 L 687.57,176.14 L 692.65,178.78 L 707.00,180.74 L 706.52,183.33 Z"/><path class="country" d="M 636.70,140.08 L 629.73,140.97 L 620.25,139.51 L 617.19,142.09 L 621.57,151.41 L 626.62,154.37 L 621.29,157.84 L 621.38,162.12 L 615.32,168.14 L 611.40,174.23 L 604.86,180.52 L 597.60,180.06 L 590.71,186.35 L 594.81,189.05 L 595.52,193.67 L 599.03,196.71 L 600.27,201.86 L 586.52,201.85 L 582.35,205.85 L 577.77,204.33 L 575.91,200.02 L 571.08,195.45 L 540.61,197.53 L 542.96,190.56 L 551.98,187.46 L 551.46,184.70 L 548.47,183.73 L 548.30,178.44 L 542.32,175.80 L 536.71,169.02 L 547.19,172.09 L 553.44,171.19 L 557.18,171.96 L 558.44,170.64 L 562.79,171.17 L 570.92,168.67 L 571.13,163.57 L 574.62,160.17 L 579.27,160.18 L 579.95,158.50 L 584.73,157.72 L 587.04,158.28 L 589.49,156.59 L 589.14,152.99 L 591.79,149.37 L 595.77,147.85 L 593.32,143.88 L 599.26,144.07 L 600.98,141.91 L 600.72,139.60 L 603.83,137.08 L 601.64,131.55 L 605.29,128.94 L 619.17,126.98 L 625.99,125.20 L 630.61,128.00 L 632.46,132.61 L 642.73,135.04 L 636.70,140.08 Z"/><path class="country" d="M 575.47,123.86 L 582.10,125.86 L 586.62,123.93 L 588.73,125.09 L 590.74,122.35 L 594.48,122.47 L 596.10,119.17 L 598.79,117.08 L 602.18,118.45 L 601.50,120.28 L 603.39,120.57 L 602.80,125.61 L 605.28,127.57 L 610.23,125.71 L 614.13,123.03 L 624.88,123.48 L 625.99,125.20 L 619.17,126.98 L 605.29,128.94 L 601.64,131.55 L 603.83,137.08 L 600.72,139.60 L 600.98,141.91 L 599.26,144.07 L 593.32,143.88 L 595.77,147.85 L 591.79,149.37 L 589.14,152.99 L 589.49,156.59 L 587.04,158.28 L 584.73,157.72 L 579.95,158.50 L 579.27,160.18 L 574.62,160.17 L 571.13,163.57 L 570.92,168.67 L 562.79,171.17 L 558.44,170.64 L 557.18,171.96 L 553.44,171.19 L 547.19,172.09 L 536.71,169.02 L 542.38,163.58 L 541.87,159.72 L 537.14,158.71 L 536.65,154.90 L 534.60,150.11 L 537.27,146.83 L 534.55,145.94 L 538.82,134.10 L 545.19,136.38 L 549.90,135.58 L 551.21,132.86 L 556.14,131.95 L 559.67,130.13 L 560.91,125.33 L 566.18,124.17 L 567.16,122.03 L 570.11,123.64 L 575.47,123.86 Z"/><path class="country" d="M 583.70,119.06 L 582.35,114.59 L 577.76,113.16 L 579.38,110.52 L 584.60,110.80 L 587.57,107.48 L 589.56,103.63 L 597.92,102.24 L 596.61,105.02 L 597.51,106.69 L 600.09,106.53 L 597.80,108.39 L 591.00,107.38 L 590.41,110.84 L 597.18,110.37 L 604.90,112.32 L 616.72,111.41 L 618.31,116.97 L 620.36,116.36 L 624.16,117.73 L 623.94,120.06 L 624.88,123.48 L 614.13,123.03 L 610.23,125.71 L 605.28,127.57 L 602.80,125.61 L 603.39,120.57 L 601.50,120.28 L 602.18,118.45 L 598.79,117.08 L 596.10,119.17 L 594.48,122.47 L 590.74,122.35 L 588.73,125.09 L 586.62,123.93 L 582.10,125.86 L 580.19,125.13 L 583.70,119.06 Z"/><path class="country" d="M 601.16,91.77 L 605.28,90.93 L 615.56,92.99 L 616.53,89.45 L 620.08,88.21 L 628.98,90.73 L 631.25,90.07 L 650.89,90.86 L 654.02,93.02 L 657.87,93.90 L 657.00,95.26 L 647.15,98.51 L 644.92,100.89 L 636.90,101.60 L 634.54,105.43 L 627.92,104.63 L 623.61,105.80 L 617.64,108.64 L 618.50,110.04 L 616.72,111.41 L 604.90,112.32 L 597.18,110.37 L 590.41,110.84 L 591.00,107.38 L 597.80,108.39 L 600.09,106.53 L 604.84,107.12 L 612.85,102.80 L 605.44,99.64 L 600.99,101.14 L 596.38,98.88 L 601.62,94.99 L 599.76,94.40 L 601.16,91.77 Z"/><path class="country" d="M 487.15,95.30 L 494.25,94.06 L 498.47,95.74 L 502.85,100.44 L 513.10,100.07 L 512.08,97.04 L 517.42,94.98 L 522.68,91.49 L 531.10,94.66 L 531.77,99.45 L 534.16,100.68 L 540.92,100.40 L 543.02,101.49 L 546.09,107.68 L 557.31,114.65 L 563.85,117.58 L 572.16,120.15 L 571.99,123.82 L 567.16,122.03 L 566.18,124.17 L 560.91,125.33 L 559.67,130.13 L 556.14,131.95 L 551.21,132.86 L 549.90,135.58 L 545.19,136.38 L 538.82,134.10 L 538.27,129.05 L 533.61,128.84 L 526.47,123.52 L 521.48,122.87 L 514.57,119.82 L 510.12,119.27 L 507.38,120.39 L 503.20,120.22 L 498.75,123.65 L 493.26,124.81 L 492.10,120.56 L 493.01,114.29 L 488.13,112.26 L 489.74,108.15 L 485.59,107.80 L 486.97,102.74 L 492.86,104.21 L 498.36,102.29 L 493.80,98.69 L 492.01,95.26 L 486.98,96.79 L 486.34,101.19 L 484.39,97.30 L 487.15,95.30 Z"/><path class="country" d="M 456.34,165.29 L 456.28,162.09 L 454.28,162.09 L 455.31,157.74 L 452.09,153.19 L 444.43,149.90 L 440.10,144.19 L 441.55,139.51 L 444.70,137.44 L 444.23,133.94 L 440.13,132.13 L 432.66,120.17 L 433.88,118.31 L 431.93,111.43 L 436.21,109.72 L 437.20,111.99 L 440.36,114.76 L 444.65,115.55 L 446.91,115.38 L 454.28,110.95 L 456.63,110.51 L 458.47,112.27 L 456.32,115.24 L 460.21,118.38 L 461.77,118.08 L 463.75,122.50 L 469.67,123.75 L 474.01,126.76 L 482.90,127.80 L 492.66,126.21 L 493.26,124.81 L 498.75,123.65 L 503.20,120.22 L 507.38,120.39 L 510.12,119.27 L 514.57,119.82 L 521.48,122.87 L 526.47,123.52 L 533.61,128.84 L 538.27,129.05 L 538.82,134.10 L 534.55,145.94 L 537.27,146.83 L 534.60,150.11 L 536.65,154.90 L 537.14,158.71 L 541.87,159.72 L 542.38,163.58 L 536.71,169.02 L 542.32,175.80 L 548.30,178.44 L 548.47,183.73 L 551.46,184.70 L 551.98,187.46 L 542.96,190.56 L 540.61,197.53 L 514.98,193.56 L 512.32,186.20 L 509.33,185.14 L 504.52,186.21 L 498.22,189.12 L 490.58,187.13 L 484.27,182.51 L 478.25,180.81 L 469.47,167.11 L 466.11,168.09 L 462.13,166.10 L 459.80,168.44 L 456.34,165.29 Z"/><path class="country" d="M 379.38,151.70 L 380.23,150.79 L 380.13,148.34 L 381.67,145.05 L 385.07,142.79 L 384.05,140.44 L 381.24,140.13 L 380.66,135.54 L 382.19,133.07 L 385.53,130.44 L 385.87,127.09 L 387.92,128.26 L 394.80,126.59 L 398.12,127.72 L 403.27,127.70 L 410.46,125.45 L 420.93,124.62 L 417.73,128.36 L 414.31,129.85 L 414.90,134.23 L 412.54,141.48 L 386.46,154.12 L 379.38,151.70 Z"/><path class="country" d="M 444.65,115.55 L 442.12,111.16 L 439.36,111.17 L 437.51,109.56 L 436.21,109.72 L 433.75,107.97 L 429.10,106.48 L 429.70,103.56 L 428.64,101.45 L 437.33,100.51 L 438.62,102.09 L 441.00,103.13 L 439.74,104.63 L 443.07,106.69 L 441.31,108.60 L 446.77,111.22 L 446.91,115.38 L 444.65,115.55 Z"/><path class="country" d="M 259.05,5.75 L 255.50,11.37 L 247.92,10.79 L 244.38,15.55 L 237.14,15.83 L 235.16,10.16 L 228.05,0.00 L 260.41,0.00 L 259.05,5.75 Z"/><path class="country" d="M 338.93,12.49 L 339.82,13.98 L 343.10,13.26 L 349.21,14.69 L 349.82,17.51 L 348.48,19.13 L 352.40,23.06 L 354.95,24.15 L 354.57,25.24 L 358.78,26.29 L 360.59,27.89 L 358.15,29.20 L 353.11,29.00 L 351.91,29.56 L 354.91,35.39 L 349.55,35.75 L 347.62,37.06 L 347.22,40.08 L 344.73,39.50 L 339.09,39.79 L 337.46,38.39 L 335.11,39.43 L 332.76,38.57 L 314.55,36.54 L 309.71,36.67 L 306.28,38.30 L 303.29,38.53 L 303.18,35.86 L 301.25,33.08 L 304.99,31.85 L 305.03,29.46 L 303.30,27.18 L 303.03,24.53 L 309.07,24.57 L 315.85,22.31 L 317.30,18.92 L 322.43,17.00 L 321.84,14.31 L 332.35,10.99 L 338.93,12.49 Z"/><path class="country" d="M 357.25,35.63 L 358.83,34.27 L 367.20,33.99 L 371.20,37.39 L 369.64,38.60 L 370.16,40.46 L 375.14,40.75 L 377.36,43.36 L 377.23,44.54 L 385.16,46.65 L 389.96,45.70 L 393.82,48.51 L 397.47,48.44 L 406.68,50.39 L 406.75,52.16 L 404.22,55.30 L 405.60,58.61 L 404.61,60.61 L 398.57,61.05 L 395.34,62.72 L 395.15,65.39 L 390.16,65.87 L 386.00,67.81 L 380.15,68.12 L 374.76,70.36 L 375.08,73.57 L 373.33,72.21 L 366.87,70.68 L 365.22,72.17 L 354.65,70.00 L 354.22,67.76 L 348.43,68.50 L 346.11,71.81 L 341.27,76.24 L 338.44,75.21 L 335.50,76.18 L 332.71,75.07 L 334.28,74.42 L 337.09,70.45 L 336.64,69.37 L 337.95,68.89 L 338.57,69.72 L 343.90,69.46 L 342.74,68.85 L 343.18,67.95 L 341.00,66.43 L 340.09,63.92 L 337.82,62.94 L 338.27,60.91 L 335.44,59.29 L 332.87,59.07 L 328.27,57.20 L 319.98,58.67 L 318.41,60.08 L 311.66,61.57 L 308.76,60.11 L 300.89,59.42 L 298.19,60.71 L 297.76,59.10 L 294.29,57.47 L 297.24,53.49 L 298.60,53.84 L 296.99,51.14 L 302.67,46.15 L 305.77,45.45 L 306.44,43.77 L 303.29,38.53 L 306.28,38.30 L 309.71,36.67 L 314.55,36.54 L 332.76,38.57 L 335.11,39.43 L 337.46,38.39 L 339.09,39.79 L 344.73,39.50 L 347.22,40.08 L 347.62,37.06 L 349.55,35.75 L 357.25,35.63 Z"/><path class="country" d="M 303.30,27.18 L 305.03,29.46 L 304.99,31.85 L 301.25,33.08 L 303.18,35.86 L 303.29,38.53 L 306.44,43.77 L 305.77,45.45 L 302.67,46.15 L 296.99,51.14 L 298.60,53.84 L 291.30,51.18 L 286.80,52.03 L 283.85,51.41 L 280.16,52.70 L 277.00,50.57 L 274.43,51.38 L 271.21,48.07 L 266.56,47.71 L 265.97,45.83 L 261.68,45.16 L 260.75,46.71 L 257.35,45.46 L 257.74,43.81 L 253.07,43.29 L 250.11,41.36 L 247.54,37.53 L 248.03,35.46 L 246.48,32.25 L 244.22,30.11 L 245.96,28.51 L 244.50,25.46 L 266.39,18.89 L 272.63,19.90 L 273.10,21.37 L 298.32,22.03 L 301.52,22.68 L 303.03,24.53 L 303.30,27.18 Z"/><path class="country" d="M 261.90,61.71 L 258.38,61.72 L 259.59,63.02 L 256.32,67.90 L 250.86,68.05 L 247.70,69.41 L 233.60,67.39 L 232.21,65.31 L 226.03,66.35 L 225.30,67.49 L 215.50,65.38 L 216.46,63.91 L 216.21,62.85 L 218.10,62.52 L 221.26,64.19 L 222.15,62.60 L 227.67,62.86 L 232.13,61.78 L 235.13,61.97 L 237.08,63.19 L 237.66,62.17 L 236.78,58.27 L 239.02,57.50 L 241.22,54.74 L 245.87,56.67 L 249.38,54.21 L 251.58,53.77 L 256.44,55.60 L 259.37,55.29 L 262.25,56.42 L 261.90,61.71 Z"/><path class="country" d="M 297.76,59.10 L 298.19,60.71 L 294.37,61.97 L 287.64,70.10 L 282.63,71.24 L 278.73,70.97 L 271.60,73.44 L 266.44,72.29 L 259.78,68.98 L 258.57,66.95 L 257.51,66.89 L 259.59,63.02 L 258.38,61.72 L 261.90,61.71 L 262.37,59.26 L 267.86,61.45 L 273.10,60.71 L 273.61,59.51 L 282.74,58.03 L 284.21,56.62 L 286.26,56.26 L 292.95,58.08 L 294.29,57.47 L 297.76,59.10 Z"/><path class="country" d="M 322.62,58.68 L 328.27,57.20 L 332.87,59.07 L 335.44,59.29 L 338.27,60.91 L 337.82,62.94 L 340.09,63.92 L 341.00,66.43 L 343.18,67.95 L 342.74,68.85 L 343.90,69.46 L 338.57,69.72 L 337.95,68.89 L 336.64,69.37 L 337.09,70.45 L 334.28,74.42 L 332.71,75.07 L 331.59,72.33 L 332.05,67.14 L 324.53,59.26 L 322.62,58.68 Z"/><path class="country" d="M 335.50,76.18 L 338.44,75.21 L 341.27,76.24 L 341.42,77.79 L 338.39,79.08 L 336.49,78.52 L 334.74,85.76 L 331.06,85.13 L 326.51,82.94 L 319.16,84.34 L 316.06,85.87 L 306.88,85.55 L 302.08,84.62 L 299.66,85.06 L 296.71,81.54 L 298.16,80.53 L 296.62,79.78 L 294.66,81.13 L 291.01,79.39 L 290.52,76.91 L 286.71,75.50 L 286.01,73.59 L 282.63,71.24 L 287.64,70.10 L 294.37,61.97 L 300.89,59.42 L 308.76,60.11 L 311.66,61.57 L 318.41,60.08 L 319.98,58.67 L 322.62,58.68 L 324.53,59.26 L 332.05,67.14 L 331.59,72.33 L 332.71,75.07 L 335.50,76.18 Z"/><path class="country" d="M 322.43,17.00 L 317.30,18.92 L 315.85,22.31 L 309.07,24.57 L 303.03,24.53 L 301.52,22.68 L 298.32,22.03 L 297.82,20.50 L 298.49,18.86 L 289.18,16.86 L 287.85,11.81 L 295.01,9.97 L 305.49,10.36 L 311.63,9.76 L 312.51,11.01 L 315.83,11.40 L 321.84,14.31 L 322.43,17.00 Z"/><path class="country" d="M 329.81,4.53 L 330.35,7.44 L 332.35,10.99 L 321.84,14.31 L 315.83,11.40 L 312.51,11.01 L 311.63,9.76 L 305.49,10.36 L 295.01,9.97 L 287.85,11.81 L 288.07,7.30 L 291.14,3.53 L 297.03,1.48 L 301.99,5.96 L 307.00,5.85 L 308.21,1.24 L 313.53,0.18 L 321.65,3.14 L 326.80,3.15 L 329.81,4.53 Z"/><path class="country" d="M 329.48,1.25 L 326.80,3.15 L 321.65,3.14 L 313.53,0.18 L 308.21,1.24 L 308.46,0.00 L 329.07,0.00 L 329.48,1.25 Z"/><path class="country" d="M 245.96,28.51 L 244.22,30.11 L 246.48,32.25 L 248.03,35.46 L 247.54,37.53 L 250.11,41.36 L 247.32,41.99 L 245.67,41.30 L 244.10,42.44 L 232.75,46.40 L 234.51,50.72 L 241.22,54.74 L 239.02,57.50 L 236.78,58.27 L 237.66,62.17 L 237.08,63.19 L 235.13,61.97 L 232.13,61.78 L 227.67,62.86 L 222.15,62.60 L 221.26,64.19 L 218.10,62.52 L 216.21,62.85 L 209.52,61.02 L 208.23,62.32 L 202.92,62.28 L 203.71,58.00 L 206.87,53.89 L 197.86,52.79 L 194.91,51.22 L 195.27,48.59 L 194.02,47.23 L 194.73,43.18 L 193.68,36.89 L 197.43,36.89 L 199.02,34.63 L 200.58,29.14 L 199.41,27.11 L 200.63,25.84 L 205.85,25.51 L 207.01,26.83 L 211.25,23.88 L 209.83,21.63 L 209.54,18.22 L 214.26,19.01 L 218.26,18.10 L 218.37,20.42 L 224.69,21.82 L 224.62,23.95 L 230.98,22.82 L 234.49,21.18 L 241.55,23.55 L 244.50,25.46 L 245.96,28.51 Z"/><path class="country" d="M 299.66,85.06 L 302.08,84.62 L 306.88,85.55 L 316.06,85.87 L 319.16,84.34 L 326.51,82.94 L 331.06,85.13 L 334.74,85.76 L 331.49,88.24 L 329.21,92.53 L 331.23,95.96 L 325.85,95.15 L 319.48,97.04 L 319.41,100.03 L 313.73,100.59 L 309.33,98.50 L 304.33,100.15 L 299.70,99.97 L 299.26,96.00 L 296.13,94.08 L 297.16,93.23 L 296.48,92.52 L 297.53,90.61 L 299.91,88.73 L 296.88,86.14 L 296.32,83.95 L 297.86,82.59 L 299.66,85.06 Z"/><path class="country" d="M 319.78,137.97 L 310.78,138.48 L 310.84,137.49 L 303.22,136.32 L 304.37,133.77 L 307.79,135.79 L 317.31,135.88 L 317.16,136.92 L 320.56,136.20 L 319.78,137.97 Z M 304.33,100.15 L 309.33,98.50 L 313.73,100.59 L 319.41,100.03 L 319.48,97.04 L 322.53,98.63 L 320.59,102.38 L 319.11,103.06 L 312.04,102.32 L 304.47,103.88 L 308.80,107.25 L 305.62,108.23 L 302.14,108.23 L 298.84,105.14 L 297.66,106.46 L 299.06,110.04 L 302.19,112.86 L 299.83,114.17 L 306.41,118.68 L 306.50,122.07 L 300.72,120.48 L 302.56,123.54 L 298.59,124.17 L 300.96,129.46 L 296.81,129.54 L 291.69,126.93 L 288.25,118.14 L 282.61,111.96 L 282.19,110.25 L 285.09,107.34 L 285.47,105.39 L 287.50,104.52 L 287.63,102.94 L 291.71,102.41 L 294.10,101.10 L 297.48,101.22 L 298.51,100.17 L 304.33,100.15 Z"/><path class="country" d="M 433.08,125.99 L 430.89,124.46 L 423.62,123.69 L 420.93,124.62 L 410.46,125.45 L 403.27,127.70 L 398.12,127.72 L 394.80,126.59 L 387.92,128.26 L 385.87,127.09 L 385.53,130.44 L 382.19,133.07 L 379.89,130.35 L 382.26,128.10 L 378.44,128.61 L 373.22,127.23 L 368.92,130.68 L 359.43,131.35 L 354.37,128.13 L 347.64,127.93 L 346.19,130.42 L 341.87,131.13 L 335.83,127.94 L 329.01,128.05 L 325.30,122.08 L 320.74,118.75 L 323.78,114.09 L 319.82,111.22 L 326.75,105.48 L 336.37,105.24 L 339.00,100.68 L 350.91,101.47 L 358.42,97.58 L 365.71,95.89 L 376.05,95.76 L 386.96,99.99 L 395.92,102.31 L 403.20,101.38 L 408.58,101.92 L 415.96,98.79 L 422.62,98.50 L 428.64,101.45 L 429.70,103.56 L 429.10,106.48 L 433.75,107.97 L 436.21,109.72 L 431.93,111.43 L 433.88,118.31 L 432.66,120.17 L 436.08,124.98 L 433.08,125.99 Z M 325.85,95.15 L 331.23,95.96 L 331.97,98.26 L 337.43,100.20 L 336.29,101.67 L 328.87,102.00 L 320.99,107.09 L 319.02,104.29 L 319.11,103.06 L 320.59,102.38 L 322.53,98.63 L 319.48,97.04 L 325.85,95.15 Z"/><path class="country" d="M 287.50,104.52 L 285.47,105.39 L 285.09,107.34 L 282.19,110.25 L 281.13,109.83 L 281.00,108.51 L 277.54,106.50 L 276.99,103.64 L 278.38,97.68 L 277.32,96.73 L 276.90,94.83 L 279.61,91.87 L 280.01,93.00 L 281.69,92.47 L 284.52,94.69 L 284.94,96.87 L 284.14,98.91 L 285.03,101.48 L 287.63,102.94 L 287.50,104.52 Z"/><path class="country" d="M 259.78,68.98 L 266.44,72.29 L 271.60,73.44 L 273.94,72.55 L 277.44,76.58 L 275.03,78.84 L 272.21,77.51 L 267.89,77.59 L 262.51,76.60 L 259.59,76.73 L 258.24,77.98 L 256.00,76.60 L 254.69,79.09 L 259.10,83.75 L 266.72,89.83 L 272.25,92.10 L 271.56,93.12 L 262.06,88.74 L 256.35,86.96 L 251.09,82.54 L 252.35,82.09 L 249.50,79.57 L 249.39,77.54 L 245.37,76.60 L 243.45,79.19 L 241.61,77.18 L 241.97,75.00 L 246.32,75.20 L 247.47,74.19 L 252.05,75.29 L 252.02,73.61 L 254.20,73.00 L 254.80,70.57 L 259.78,68.98 Z"/><path class="country" d="M 216.46,63.91 L 215.50,65.38 L 218.33,66.48 L 221.52,66.64 L 221.02,69.10 L 218.27,70.11 L 213.64,69.36 L 212.29,71.78 L 209.31,71.97 L 208.23,71.02 L 204.72,73.05 L 201.71,73.34 L 199.02,72.05 L 196.88,69.42 L 193.89,70.36 L 193.98,67.65 L 198.55,64.27 L 198.35,62.75 L 201.20,63.30 L 202.92,62.28 L 208.23,62.32 L 209.52,61.02 L 216.21,62.85 L 216.46,63.91 Z"/><path class="country" d="M 195.27,48.59 L 194.91,51.22 L 191.71,50.82 L 192.39,47.46 L 194.02,47.23 L 195.27,48.59 Z"/><path class="country" d="M 194.02,47.23 L 192.39,47.46 L 191.71,50.82 L 186.25,48.09 L 183.04,48.56 L 175.77,43.32 L 172.87,43.22 L 171.96,41.11 L 176.97,39.93 L 181.54,40.40 L 187.34,39.15 L 194.73,43.18 L 194.02,47.23 Z"/><path class="country" d="M 200.58,29.14 L 199.02,34.63 L 197.43,36.89 L 193.68,36.89 L 194.73,43.18 L 187.34,39.15 L 181.54,40.40 L 176.97,39.93 L 180.19,38.28 L 185.66,29.45 L 194.21,26.94 L 199.41,27.11 L 200.58,29.14 Z"/><path class="country" d="M 99.78,96.72 L 104.60,94.32 L 106.17,97.25 L 114.57,96.70 L 116.32,99.71 L 113.43,101.33 L 113.35,106.01 L 112.33,106.89 L 112.08,109.73 L 109.38,110.22 L 111.89,113.82 L 110.16,117.76 L 112.32,119.55 L 109.14,123.43 L 109.66,125.41 L 107.15,126.97 L 103.86,126.13 L 100.63,126.79 L 101.59,122.09 L 101.00,118.40 L 98.20,117.85 L 96.71,115.58 L 97.21,111.65 L 99.70,109.47 L 101.45,103.44 L 99.78,96.72 Z"/><path class="country" d="M 109.14,123.43 L 112.32,119.55 L 110.16,117.76 L 111.89,113.82 L 109.38,110.22 L 112.08,109.73 L 112.33,106.89 L 113.35,106.01 L 113.43,101.33 L 116.32,99.71 L 114.57,96.70 L 106.17,97.25 L 104.60,94.32 L 99.78,96.72 L 100.10,92.44 L 97.54,89.84 L 106.39,85.51 L 129.08,87.58 L 144.37,87.46 L 146.86,89.80 L 158.36,92.52 L 160.63,91.23 L 167.67,93.94 L 174.91,93.16 L 175.25,96.65 L 169.32,100.64 L 161.32,101.91 L 160.76,103.93 L 156.92,107.26 L 154.51,112.14 L 156.95,115.57 L 153.33,118.25 L 151.98,122.15 L 147.26,123.34 L 142.83,127.96 L 128.94,127.93 L 125.03,130.05 L 122.64,132.32 L 119.58,131.82 L 117.27,129.79 L 115.50,126.34 L 109.66,125.41 L 109.14,123.43 Z"/><path class="country" d="M 118.54,29.08 L 113.82,34.44 L 102.74,37.98 L 93.89,37.08 L 98.96,30.81 L 95.70,24.71 L 108.92,17.21 L 110.21,20.42 L 108.92,23.64 L 112.79,23.56 L 117.51,24.79 L 118.54,29.08 Z"/><path class="country" d="M 938.05,544.37 L 932.64,545.76 L 931.43,548.90 L 929.12,551.34 L 919.89,552.02 L 914.37,550.93 L 905.59,551.86 L 901.87,555.06 L 900.05,554.78 L 893.91,558.39 L 885.16,558.15 L 875.17,553.18 L 875.30,549.74 L 878.41,548.92 L 879.47,547.56 L 880.01,541.23 L 879.31,537.67 L 874.98,528.18 L 875.25,524.77 L 872.76,520.86 L 872.60,519.10 L 869.83,516.71 L 869.06,512.01 L 865.48,507.26 L 864.62,504.70 L 867.36,507.29 L 865.26,501.73 L 868.36,503.47 L 870.21,505.79 L 870.10,502.72 L 864.96,494.31 L 865.64,490.84 L 866.92,489.36 L 867.77,486.36 L 867.10,482.85 L 869.69,478.54 L 870.16,483.10 L 872.80,478.98 L 877.88,476.97 L 880.92,474.41 L 885.70,472.21 L 888.54,471.74 L 890.26,472.48 L 895.18,470.25 L 898.98,469.58 L 899.92,468.27 L 901.58,467.72 L 905.03,467.86 L 911.60,466.10 L 915.00,463.44 L 916.59,460.23 L 920.26,457.19 L 920.70,451.53 L 925.08,446.43 L 927.71,451.61 L 930.37,450.41 L 928.15,447.58 L 930.11,444.67 L 932.86,445.97 L 933.62,441.40 L 937.04,438.45 L 938.55,436.08 L 941.69,435.06 L 941.79,433.38 L 944.53,434.08 L 944.64,432.58 L 950.41,430.91 L 955.03,433.66 L 958.50,437.22 L 966.38,437.82 L 965.06,434.52 L 968.05,429.71 L 970.87,428.14 L 969.90,426.65 L 972.61,423.22 L 976.40,421.10 L 979.59,421.81 L 984.85,420.68 L 984.73,417.62 L 980.15,415.64 L 983.48,414.77 L 987.62,416.26 L 990.94,418.72 L 996.21,420.25 L 997.99,419.65 L 1000.00,420.60 L 1000.00,550.02 L 994.29,545.09 L 995.46,543.70 L 987.44,540.07 L 983.05,539.90 L 977.04,536.97 L 965.85,537.54 L 950.64,541.69 L 944.68,541.30 L 938.05,544.37 Z"/><path class="country" d="M 666.48,309.11 L 663.86,310.82 L 658.43,312.19 L 655.45,307.42 L 654.34,298.79 L 657.17,289.06 L 661.49,292.39 L 667.42,302.86 L 666.48,309.11 Z"/><path class="country" d="M 835.35,236.95 L 835.16,231.79 L 838.24,229.07 L 845.07,227.39 L 848.67,227.53 L 850.06,229.82 L 847.32,232.46 L 845.87,235.93 L 840.47,238.81 L 835.35,236.95 Z M 657.38,90.48 L 661.66,88.92 L 656.04,78.49 L 668.42,76.10 L 671.62,74.76 L 676.13,64.02 L 688.53,65.99 L 692.00,63.28 L 692.30,57.27 L 697.49,56.70 L 702.25,52.71 L 704.70,52.22 L 706.34,56.40 L 711.59,59.59 L 720.51,61.84 L 724.82,66.67 L 722.41,73.68 L 724.66,76.28 L 740.50,78.15 L 748.06,81.89 L 751.92,82.55 L 754.77,88.08 L 758.43,91.65 L 765.32,91.51 L 778.22,92.85 L 786.54,92.02 L 792.71,92.91 L 801.95,96.56 L 809.51,96.55 L 812.28,98.42 L 819.56,95.19 L 829.65,93.11 L 839.02,92.88 L 846.33,90.77 L 850.81,87.56 L 855.18,85.54 L 852.18,81.26 L 855.46,77.39 L 865.40,79.15 L 871.63,75.96 L 881.16,73.64 L 885.74,69.67 L 890.14,67.96 L 899.21,67.17 L 904.15,67.84 L 904.83,65.71 L 899.17,61.52 L 894.15,59.60 L 889.35,61.81 L 883.18,60.88 L 879.64,61.64 L 878.03,59.19 L 885.49,48.67 L 893.00,50.93 L 901.80,47.14 L 901.75,44.50 L 907.39,38.14 L 910.86,36.22 L 910.79,32.90 L 907.36,31.48 L 912.52,28.49 L 920.29,27.41 L 928.57,27.25 L 937.93,29.03 L 943.41,31.24 L 951.80,43.56 L 954.11,49.44 L 964.99,51.36 L 972.39,55.62 L 974.92,61.26 L 984.42,61.27 L 989.83,58.90 L 1000.00,57.16 L 996.88,62.53 L 994.45,64.73 L 992.31,71.30 L 988.11,77.14 L 980.52,76.07 L 975.16,78.19 L 976.80,83.33 L 975.90,90.42 L 972.71,90.58 L 972.75,93.63 L 968.71,90.09 L 966.23,93.45 L 956.58,96.03 L 957.55,99.20 L 952.15,98.98 L 949.18,97.10 L 944.89,101.36 L 938.00,104.58 L 932.91,108.43 L 924.17,110.17 L 919.57,112.98 L 912.84,114.62 L 916.16,111.83 L 914.85,109.50 L 919.80,105.47 L 916.50,102.32 L 911.05,104.44 L 904.00,108.61 L 900.15,112.49 L 894.02,112.77 L 890.83,115.57 L 894.12,119.63 L 899.24,120.62 L 899.45,123.31 L 904.39,125.06 L 911.40,120.78 L 916.95,123.11 L 920.99,123.27 L 922.00,126.42 L 913.15,128.09 L 910.23,131.33 L 904.15,134.34 L 900.95,138.54 L 907.67,141.84 L 910.13,147.74 L 918.18,157.85 L 918.07,162.30 L 914.15,163.94 L 915.65,167.14 L 919.33,169.00 L 916.78,178.65 L 913.29,179.19 L 903.66,193.56 L 897.86,200.72 L 880.57,211.30 L 873.52,211.99 L 869.70,214.66 L 867.54,212.71 L 864.01,215.69 L 855.27,218.70 L 848.66,219.62 L 846.53,225.95 L 843.06,226.31 L 841.42,221.95 L 842.90,219.63 L 834.52,217.71 L 831.56,218.69 L 825.27,217.13 L 822.30,214.69 L 823.28,211.23 L 817.57,210.14 L 814.56,207.89 L 809.23,211.09 L 798.17,211.75 L 791.58,214.09 L 792.52,220.95 L 789.19,220.79 L 788.44,216.90 L 783.85,218.65 L 776.51,215.29 L 778.32,210.31 L 774.37,209.14 L 772.88,203.62 L 766.28,204.62 L 767.03,197.50 L 772.95,192.49 L 773.02,182.95 L 770.29,181.52 L 768.20,177.98 L 764.54,178.43 L 757.81,177.53 L 759.92,175.01 L 756.99,171.28 L 752.53,173.81 L 747.29,172.34 L 740.08,176.16 L 734.39,180.62 L 729.35,181.37 L 726.62,179.76 L 723.32,179.61 L 718.85,178.22 L 715.47,179.74 L 711.34,184.20 L 710.81,179.48 L 707.00,180.74 L 692.65,178.78 L 687.57,176.14 L 682.72,174.96 L 680.62,172.08 L 677.11,171.22 L 670.80,167.31 L 665.79,165.46 L 663.20,166.90 L 648.37,158.90 L 646.62,152.29 L 651.10,153.10 L 651.31,150.03 L 648.82,146.96 L 649.45,142.07 L 642.73,135.04 L 632.46,132.61 L 630.61,128.00 L 625.99,125.20 L 624.88,123.48 L 623.94,120.06 L 624.16,117.73 L 620.36,116.36 L 618.31,116.97 L 616.72,111.41 L 618.50,110.04 L 617.64,108.64 L 623.61,105.80 L 627.92,104.63 L 634.54,105.43 L 636.90,101.60 L 644.92,100.89 L 647.15,98.51 L 657.00,95.26 L 657.87,93.90 L 657.38,90.48 Z"/><path class="country" d="M 913.60,211.25 L 910.92,216.18 L 907.63,211.11 L 906.91,206.66 L 910.59,200.77 L 915.59,196.23 L 918.45,198.01 L 913.60,211.25 Z"/><path class="country" d="M 225.30,67.49 L 226.03,66.35 L 232.21,65.31 L 233.60,67.39 L 242.54,68.94 L 241.86,71.90 L 243.36,74.45 L 238.39,73.58 L 233.30,75.71 L 233.65,78.69 L 232.88,80.40 L 234.93,83.45 L 240.79,86.47 L 243.94,91.43 L 250.89,96.27 L 255.79,96.23 L 257.31,97.56 L 255.56,98.75 L 265.74,102.74 L 271.10,105.87 L 271.75,106.99 L 270.58,109.14 L 267.11,106.33 L 261.68,105.35 L 259.05,109.23 L 263.57,111.45 L 262.83,114.58 L 260.22,114.94 L 256.88,120.08 L 254.28,120.55 L 255.57,115.49 L 256.93,114.21 L 252.59,107.71 L 249.99,106.96 L 248.15,104.37 L 244.13,103.28 L 241.42,100.87 L 236.80,100.48 L 226.20,93.87 L 221.95,90.41 L 220.00,84.48 L 211.81,81.80 L 208.93,82.61 L 205.32,85.40 L 202.72,85.84 L 203.43,83.23 L 200.05,82.47 L 198.44,77.83 L 200.60,76.00 L 198.76,73.75 L 199.02,72.05 L 201.71,73.34 L 204.72,73.05 L 208.23,71.02 L 209.31,71.97 L 212.29,71.78 L 213.64,69.36 L 218.27,70.11 L 221.02,69.10 L 221.52,66.64 L 225.30,67.49 Z M 253.25,118.61 L 251.00,123.34 L 251.94,125.19 L 250.62,128.28 L 245.85,126.02 L 233.94,122.32 L 234.82,119.24 L 242.13,119.79 L 253.25,118.61 Z M 213.81,100.74 L 217.56,105.00 L 216.68,112.94 L 213.84,112.56 L 211.29,114.56 L 208.93,112.97 L 208.68,105.73 L 207.25,102.30 L 210.69,102.60 L 213.81,100.74 Z"/><path class="country" d="M 214.26,19.01 L 209.54,18.22 L 207.00,14.89 L 206.81,8.76 L 209.65,5.34 L 215.15,4.97 L 217.35,3.31 L 222.38,1.62 L 222.16,4.71 L 220.31,6.66 L 221.06,8.34 L 224.45,9.25 L 222.92,11.51 L 221.06,10.86 L 216.56,15.18 L 218.26,18.10 L 214.26,19.01 Z M 235.56,14.34 L 231.81,19.20 L 225.27,15.81 L 224.40,13.32 L 233.57,11.33 L 235.56,14.34 Z"/><path class="country" d="M 112.79,23.56 L 108.92,23.64 L 110.21,20.42 L 108.92,17.21 L 114.16,16.96 L 120.86,20.67 L 117.51,24.79 L 112.79,23.56 Z M 136.92,27.57 L 137.84,24.09 L 133.56,20.31 L 125.97,19.25 L 124.48,17.63 L 126.76,14.95 L 124.70,13.30 L 121.34,16.13 L 120.97,10.35 L 117.81,7.29 L 120.08,1.09 L 121.17,0.00 L 133.55,0.00 L 130.79,2.68 L 144.00,1.89 L 142.38,6.78 L 136.76,12.16 L 143.22,12.54 L 149.28,20.25 L 153.56,21.21 L 159.19,30.42 L 166.76,31.56 L 166.00,35.40 L 162.82,37.16 L 165.31,40.26 L 159.69,43.41 L 151.33,43.35 L 140.69,45.00 L 137.77,43.82 L 133.64,46.63 L 127.86,45.95 L 123.47,48.24 L 120.15,47.04 L 129.31,40.74 L 134.91,39.44 L 125.10,38.44 L 123.33,36.05 L 129.86,34.19 L 126.44,30.96 L 127.63,27.03 L 136.92,27.57 Z"/><path class="country" d="M 448.04,97.04 L 452.33,100.68 L 455.10,101.09 L 456.17,99.57 L 459.90,97.15 L 466.37,104.56 L 469.28,104.84 L 471.21,106.46 L 466.06,106.94 L 463.90,113.70 L 461.60,115.11 L 461.77,118.08 L 460.21,118.38 L 456.32,115.24 L 458.47,112.27 L 456.63,110.51 L 454.28,110.95 L 446.91,115.38 L 446.77,111.22 L 441.31,108.60 L 443.07,106.69 L 439.74,104.63 L 441.00,103.13 L 438.62,102.09 L 437.33,100.51 L 438.86,99.53 L 443.52,101.26 L 446.89,101.61 L 447.74,100.91 L 444.66,97.66 L 446.28,96.84 L 448.04,97.04 Z M 440.36,114.76 L 437.20,111.99 L 436.21,109.72 L 437.51,109.56 L 439.36,111.17 L 442.12,111.16 L 444.65,115.55 L 440.36,114.76 Z"/><path class="country" d="M 406.73,86.68 L 421.22,88.68 L 429.72,91.56 L 430.82,92.67 L 434.61,91.73 L 440.44,92.98 L 442.35,95.45 L 446.28,96.84 L 444.66,97.66 L 447.74,100.91 L 446.89,101.61 L 443.52,101.26 L 438.86,99.53 L 437.33,100.51 L 428.64,101.45 L 422.62,98.50 L 415.96,98.79 L 416.89,96.22 L 415.33,92.13 L 411.72,89.92 L 408.26,89.23 L 405.97,87.39 L 406.73,86.68 Z"/><path class="country" d="M 908.27,267.20 L 913.63,267.42 L 915.80,269.58 L 914.14,274.77 L 908.27,267.20 Z M 923.98,286.43 L 924.67,282.71 L 928.12,282.36 L 927.11,286.40 L 931.74,280.60 L 931.14,286.33 L 924.97,293.87 L 921.13,289.72 L 923.98,286.43 Z M 945.14,292.28 L 947.11,304.86 L 944.98,310.35 L 942.70,304.24 L 939.77,307.28 L 941.77,311.70 L 939.98,314.51 L 932.62,311.03 L 930.87,306.69 L 932.77,303.84 L 928.81,301.00 L 926.85,303.49 L 923.91,303.26 L 919.28,306.60 L 918.25,304.85 L 920.70,299.79 L 928.05,295.84 L 930.26,298.56 L 935.01,296.92 L 936.03,294.24 L 940.45,294.08 L 940.08,289.44 L 945.14,292.28 Z M 888.59,297.80 L 891.65,293.60 L 899.92,285.74 L 903.20,279.78 L 904.31,284.67 L 900.18,287.98 L 896.90,292.10 L 888.59,297.80 Z M 919.84,241.14 L 921.97,245.44 L 920.33,250.43 L 916.64,252.41 L 915.66,257.25 L 917.06,262.03 L 920.37,262.69 L 923.13,261.98 L 930.94,265.31 L 930.34,268.57 L 932.38,270.01 L 931.73,272.78 L 926.86,269.83 L 924.55,266.68 L 922.95,268.88 L 918.97,265.29 L 913.29,266.18 L 910.18,264.85 L 910.50,262.37 L 912.45,260.85 L 910.58,259.46 L 909.78,261.62 L 906.69,258.17 L 905.76,255.56 L 905.52,249.82 L 908.04,251.79 L 908.69,242.41 L 910.72,236.97 L 914.51,236.98 L 918.36,238.69 L 920.29,237.13 L 920.86,238.65 L 919.84,241.14 Z M 918.02,276.65 L 921.77,278.51 L 925.75,278.50 L 925.63,281.00 L 922.74,283.55 L 918.77,285.35 L 918.99,279.50 L 918.02,276.65 Z M 942.40,281.72 L 937.57,280.13 L 939.23,285.85 L 936.26,287.19 L 936.00,282.97 L 934.12,282.66 L 933.14,279.03 L 936.82,279.51 L 936.74,277.23 L 932.92,272.65 L 938.92,272.79 L 940.64,275.02 L 942.40,281.72 Z"/><path class="country" d="M 782.87,308.14 L 787.97,310.77 L 788.46,313.85 L 792.59,313.14 L 794.63,310.67 L 799.76,314.85 L 802.38,318.87 L 802.74,322.91 L 802.08,325.64 L 803.14,331.25 L 805.34,332.91 L 807.80,338.21 L 807.68,340.24 L 803.25,340.64 L 789.94,331.44 L 789.21,328.38 L 785.60,324.37 L 784.73,319.40 L 782.48,316.13 L 783.16,311.76 L 781.79,309.21 L 782.87,308.14 Z M 887.60,322.16 L 880.41,322.16 L 878.24,328.98 L 875.84,331.07 L 872.63,339.42 L 867.54,340.69 L 861.62,339.01 L 858.63,339.54 L 854.98,342.57 L 850.99,342.14 L 846.96,343.36 L 842.69,339.97 L 841.65,335.96 L 846.23,338.02 L 851.06,336.90 L 852.31,331.82 L 862.47,329.39 L 870.03,320.84 L 872.87,323.95 L 874.18,321.91 L 877.17,322.10 L 877.82,315.31 L 882.63,311.14 L 885.78,306.45 L 888.31,306.43 L 891.52,309.47 L 891.81,312.08 L 901.14,315.55 L 900.69,317.90 L 896.50,318.20 L 897.61,321.13 L 893.01,323.17 L 887.60,322.16 Z"/><path class="country" d="M 877.82,315.31 L 877.17,322.10 L 874.18,321.91 L 872.87,323.95 L 870.03,320.84 L 877.82,315.31 Z"/><path class="country" d="M 247.70,69.41 L 250.86,68.05 L 256.32,67.90 L 257.51,66.89 L 258.57,66.95 L 259.78,68.98 L 254.80,70.57 L 254.20,73.00 L 252.02,73.61 L 252.05,75.29 L 247.47,74.19 L 246.32,75.20 L 241.97,75.00 L 243.36,74.45 L 241.86,71.90 L 242.54,68.94 L 247.70,69.41 Z"/><path class="country" d="M 297.24,53.49 L 294.29,57.47 L 292.95,58.08 L 286.26,56.26 L 284.21,56.62 L 282.74,58.03 L 273.61,59.51 L 273.10,60.71 L 267.86,61.45 L 262.37,59.26 L 261.75,57.18 L 263.14,55.10 L 268.04,54.58 L 269.41,53.74 L 269.82,52.37 L 272.22,51.03 L 274.43,51.38 L 277.00,50.57 L 280.16,52.70 L 283.85,51.41 L 286.80,52.03 L 291.30,51.18 L 297.24,53.49 Z"/><path class="country" d="M 253.07,43.29 L 257.74,43.81 L 257.35,45.46 L 260.75,46.71 L 261.68,45.16 L 265.97,45.83 L 266.56,47.71 L 271.21,48.07 L 274.08,51.02 L 272.22,51.03 L 269.82,52.37 L 269.41,53.74 L 268.04,54.58 L 263.14,55.10 L 262.25,56.42 L 259.37,55.29 L 256.44,55.60 L 251.58,53.77 L 249.38,54.21 L 245.87,56.67 L 234.51,50.72 L 232.75,46.40 L 244.10,42.44 L 245.67,41.30 L 247.32,41.99 L 250.11,41.36 L 253.07,43.29 Z"/><path class="country" d="M 383.27,259.07 L 386.58,246.26 L 388.55,244.42 L 393.15,243.43 L 396.31,240.01 L 399.94,246.96 L 401.66,252.46 L 413.62,261.05 L 422.43,270.00 L 425.51,271.80 L 423.62,273.27 L 420.95,272.75 L 411.85,263.29 L 406.41,260.88 L 402.13,260.81 L 400.62,259.56 L 396.96,260.97 L 393.16,258.24 L 391.21,262.72 L 383.93,261.47 L 383.27,259.07 Z"/><path class="country" d="M 989.63,141.74 L 982.23,144.57 L 974.91,144.69 L 981.25,149.10 L 977.08,159.30 L 973.04,161.82 L 970.02,159.49 L 971.55,154.08 L 967.59,152.34 L 965.05,148.22 L 970.96,146.38 L 974.24,142.60 L 980.53,139.50 L 985.11,135.40 L 997.55,133.61 L 1000.00,134.06 L 1000.00,140.48 L 989.63,141.74 Z M 987.03,143.64 L 990.58,144.33 L 993.15,141.81 L 997.74,143.10 L 998.54,145.16 L 995.02,148.79 L 992.46,146.87 L 989.25,148.26 L 987.59,151.77 L 983.52,150.06 L 983.57,147.22 L 987.03,143.64 Z"/><path class="country" d="M 481.25,234.00 L 488.18,248.09 L 483.66,249.71 L 482.30,254.42 L 466.09,259.75 L 460.50,263.98 L 455.87,263.96 L 452.22,266.45 L 448.23,267.60 L 441.41,268.25 L 440.04,269.84 L 438.40,270.28 L 437.43,271.80 L 428.02,272.18 L 426.39,268.67 L 426.57,265.39 L 424.33,259.19 L 422.53,256.72 L 423.78,256.43 L 423.14,253.69 L 423.90,252.53 L 423.62,249.91 L 426.36,248.00 L 425.72,245.47 L 427.38,242.52 L 429.95,244.08 L 438.85,243.40 L 446.04,244.60 L 448.44,244.30 L 450.00,246.30 L 452.92,245.30 L 457.40,239.00 L 463.23,236.30 L 481.25,234.00 Z"/><path class="country" d="M 381.68,172.82 L 384.38,170.97 L 385.88,168.81 L 390.65,167.98 L 391.68,165.97 L 393.74,164.95 L 387.51,158.95 L 400.03,155.94 L 401.22,155.03 L 408.75,156.66 L 418.06,160.86 L 435.68,172.93 L 452.87,173.98 L 454.43,176.84 L 458.85,176.69 L 461.30,181.86 L 464.37,183.23 L 465.44,185.34 L 469.70,187.86 L 470.08,190.34 L 469.46,192.34 L 470.25,194.35 L 472.05,196.03 L 473.81,199.47 L 475.70,200.66 L 477.44,200.24 L 481.25,209.99 L 500.04,213.02 L 501.30,211.75 L 504.17,216.00 L 500.00,228.00 L 481.25,234.00 L 463.23,236.30 L 457.40,239.00 L 452.92,245.30 L 450.00,246.30 L 448.44,244.30 L 446.04,244.60 L 438.85,243.40 L 429.95,244.08 L 427.38,242.52 L 425.72,245.47 L 426.36,248.00 L 423.62,249.91 L 422.81,247.35 L 420.92,245.55 L 420.44,243.15 L 417.21,241.00 L 413.88,235.97 L 412.12,231.08 L 407.80,226.95 L 405.01,225.97 L 400.87,220.25 L 400.41,212.52 L 396.83,205.87 L 393.90,203.53 L 390.52,202.29 L 388.47,198.85 L 388.81,197.49 L 387.07,194.38 L 385.25,193.04 L 382.81,188.58 L 375.81,179.62 L 372.70,179.65 L 374.73,171.86 L 381.68,172.82 Z"/><path class="country" d="M 361.27,137.13 L 362.17,135.68 L 366.67,135.76 L 372.35,133.97 L 368.13,136.53 L 368.59,137.65 L 365.47,138.00 L 364.90,137.02 L 361.27,137.13 Z"/><path class="country" d="M 357.85,137.38 L 364.90,137.02 L 365.47,138.00 L 367.92,137.44 L 368.78,138.13 L 362.37,140.57 L 359.31,139.79 L 357.85,137.38 Z"/><path class="country" d="M 145.04,140.83 L 145.42,144.48 L 147.57,150.82 L 149.22,152.09 L 148.08,154.42 L 139.90,155.43 L 137.07,157.65 L 133.45,158.18 L 133.18,162.62 L 125.88,164.99 L 123.49,168.00 L 112.13,170.52 L 102.04,174.95 L 102.09,182.06 L 101.14,182.06 L 101.28,185.28 L 97.42,185.47 L 95.40,186.83 L 90.30,186.06 L 85.05,186.70 L 83.01,191.38 L 81.06,191.81 L 78.12,199.38 L 69.43,205.85 L 67.37,214.14 L 64.81,216.83 L 64.06,219.00 L 49.87,219.47 L 50.17,216.69 L 52.57,215.05 L 54.61,211.92 L 54.21,209.89 L 56.36,205.66 L 59.84,201.85 L 61.94,200.88 L 63.60,197.38 L 63.74,194.18 L 66.00,190.47 L 70.16,188.29 L 74.13,182.16 L 77.38,179.77 L 83.19,179.11 L 88.12,175.01 L 91.25,173.41 L 96.47,168.40 L 94.91,160.93 L 98.12,152.61 L 102.14,148.56 L 113.05,143.34 L 119.19,133.44 L 123.79,133.47 L 127.56,136.02 L 133.50,135.60 L 142.69,136.99 L 145.04,140.83 Z"/><path class="country" d="M 386.66,216.00 L 312.50,216.00 L 312.50,172.57 L 310.63,167.73 L 312.24,164.03 L 311.27,161.46 L 313.53,158.59 L 321.85,158.49 L 336.96,162.78 L 344.34,159.16 L 349.86,158.66 L 354.30,159.42 L 356.00,162.40 L 357.45,160.44 L 362.46,161.86 L 367.33,162.20 L 370.41,160.68 L 374.52,170.99 L 372.76,173.40 L 369.72,181.06 L 368.26,182.11 L 363.35,177.49 L 358.90,168.89 L 358.25,169.44 L 360.84,175.77 L 369.40,191.15 L 373.72,197.80 L 379.33,204.44 L 378.09,205.49 L 378.29,209.39 L 386.66,216.00 Z"/><path class="country" d="M 312.50,227.98 L 305.31,228.00 L 305.24,230.52 L 255.38,207.54 L 244.65,213.05 L 241.13,209.76 L 231.25,207.17 L 228.50,203.41 L 223.57,200.62 L 220.65,201.72 L 218.43,198.38 L 218.19,195.81 L 214.50,191.43 L 216.98,188.93 L 216.77,179.13 L 217.87,174.24 L 215.51,166.15 L 218.56,164.76 L 219.10,162.23 L 218.44,159.74 L 227.70,153.79 L 228.05,149.18 L 235.40,151.24 L 238.02,150.73 L 243.24,151.73 L 251.54,154.41 L 254.46,159.74 L 268.88,163.42 L 275.54,166.40 L 278.59,164.85 L 281.58,162.09 L 280.13,157.49 L 282.09,154.57 L 286.59,151.76 L 290.89,150.94 L 299.35,152.17 L 301.48,154.85 L 312.01,156.60 L 313.53,158.59 L 311.27,161.46 L 312.24,164.03 L 310.63,167.73 L 312.50,172.57 L 312.50,227.98 Z"/><path class="country" d="M 437.27,317.99 L 429.13,318.25 L 423.56,322.48 L 419.55,322.60 L 417.84,324.49 L 413.57,324.49 L 411.05,322.46 L 405.34,324.97 L 403.50,327.47 L 397.94,326.30 L 394.51,326.41 L 386.59,321.31 L 382.24,321.31 L 380.11,319.34 L 380.11,315.97 L 376.86,314.96 L 373.17,308.43 L 370.31,307.04 L 369.22,304.64 L 366.05,301.72 L 362.21,301.29 L 364.34,297.87 L 367.66,297.73 L 368.59,295.89 L 368.51,290.50 L 370.36,284.22 L 373.32,282.54 L 376.63,275.50 L 380.40,272.53 L 382.94,266.62 L 383.93,261.47 L 391.21,262.72 L 393.16,258.24 L 396.96,260.97 L 400.62,259.56 L 402.13,260.81 L 406.41,260.88 L 411.85,263.29 L 420.95,272.75 L 416.64,278.21 L 417.22,281.69 L 422.22,281.37 L 423.61,282.44 L 422.24,284.56 L 429.24,292.90 L 449.68,300.02 L 454.93,299.98 L 437.27,317.99 Z"/><path class="country" d="M 423.62,273.27 L 425.51,271.80 L 426.99,273.66 L 426.79,276.15 L 423.22,277.59 L 425.91,279.23 L 423.61,282.44 L 422.22,281.37 L 417.22,281.69 L 416.64,278.21 L 418.75,275.40 L 420.95,272.75 L 423.62,273.27 Z"/><path class="country" d="M 462.18,279.54 L 462.11,291.29 L 454.93,299.98 L 449.68,300.02 L 429.24,292.90 L 422.24,284.56 L 425.91,279.23 L 427.94,280.33 L 429.17,282.81 L 431.99,285.33 L 447.78,283.10 L 458.62,279.75 L 462.18,279.54 Z"/><path class="country" d="M 368.15,353.70 L 348.56,354.09 L 342.63,356.66 L 341.12,356.05 L 341.17,351.52 L 342.62,349.23 L 342.97,344.42 L 346.68,338.50 L 351.09,334.77 L 348.58,333.96 L 348.96,326.94 L 351.53,325.31 L 355.51,326.65 L 360.54,325.25 L 364.94,325.26 L 368.78,322.50 L 371.74,326.67 L 375.22,336.56 L 372.95,340.94 L 368.08,347.34 L 368.15,353.70 Z"/><path class="country" d="M 348.85,358.19 L 348.49,361.72 L 346.69,362.48 L 343.36,362.09 L 341.45,365.51 L 337.66,365.04 L 338.23,361.75 L 339.09,361.29 L 339.32,357.72 L 341.12,356.05 L 342.63,356.66 L 346.37,354.81 L 348.85,358.19 Z"/><path class="country" d="M 266.72,89.83 L 259.10,83.75 L 254.69,79.09 L 256.00,76.60 L 258.24,77.98 L 259.59,76.73 L 262.51,76.60 L 267.89,77.59 L 272.21,77.51 L 275.03,78.84 L 277.30,78.82 L 275.74,81.46 L 278.75,83.77 L 277.84,86.59 L 273.17,88.80 L 272.25,92.10 L 266.72,89.83 Z"/><path class="country" d="M 299.26,96.00 L 299.70,99.97 L 297.48,101.22 L 294.10,101.10 L 291.71,102.41 L 287.63,102.94 L 285.03,101.48 L 284.14,98.91 L 286.01,95.69 L 289.70,94.76 L 296.13,94.08 L 299.26,96.00 Z"/><path class="country" d="M 273.94,72.55 L 278.73,70.97 L 282.63,71.24 L 286.01,73.59 L 286.71,75.50 L 290.52,76.91 L 291.01,79.39 L 294.66,81.13 L 296.62,79.78 L 298.16,80.53 L 296.71,81.54 L 297.86,82.59 L 296.32,83.95 L 296.88,86.14 L 299.91,88.73 L 297.53,90.61 L 296.48,92.52 L 297.16,93.23 L 296.13,94.08 L 291.10,94.53 L 292.34,91.90 L 286.34,88.37 L 285.22,88.70 L 284.35,90.69 L 282.86,91.12 L 283.37,90.61 L 276.37,86.86 L 277.84,86.59 L 278.75,83.77 L 275.74,81.46 L 277.30,78.82 L 275.03,78.84 L 277.44,76.58 L 273.94,72.55 Z"/><path class="country" d="M 280.01,93.00 L 279.61,91.87 L 276.90,94.83 L 277.32,96.73 L 271.56,93.12 L 273.17,88.80 L 276.37,86.86 L 283.37,90.61 L 281.69,92.47 L 280.01,93.00 Z"/><path class="country" d="M 284.52,94.69 L 281.69,92.47 L 284.35,90.69 L 285.22,88.70 L 286.34,88.37 L 292.34,91.90 L 291.10,94.53 L 286.01,95.69 L 285.73,96.92 L 284.94,96.87 L 284.52,94.69 Z"/><path class="country" d="M 343.46,322.96 L 341.97,320.40 L 338.49,321.66 L 335.60,321.27 L 333.93,322.28 L 331.12,321.55 L 326.33,314.69 L 321.66,312.32 L 320.08,308.72 L 313.28,303.00 L 313.22,301.05 L 305.54,296.28 L 309.61,294.49 L 311.22,289.14 L 312.94,286.36 L 317.44,285.53 L 321.73,290.68 L 323.45,291.20 L 325.70,290.17 L 330.21,290.37 L 331.07,291.61 L 337.29,291.61 L 337.51,290.37 L 340.72,289.24 L 341.37,287.49 L 343.73,286.25 L 348.99,289.76 L 352.21,289.14 L 358.75,281.52 L 358.21,277.91 L 356.71,276.16 L 360.47,275.85 L 360.90,274.51 L 363.79,274.92 L 363.04,279.35 L 363.79,283.68 L 367.01,286.05 L 367.66,291.10 L 368.52,291.21 L 368.59,295.89 L 367.66,297.73 L 364.34,297.87 L 362.21,301.29 L 366.05,301.72 L 369.22,304.64 L 370.31,307.04 L 373.17,308.43 L 376.86,314.96 L 364.94,325.26 L 360.54,325.25 L 355.51,326.65 L 351.53,325.31 L 348.96,326.94 L 343.46,322.96 Z"/></g>
<g><text class="map-label" x="281.2" y="318.0" text-anchor="middle">Afrique</text><text class="map-label" x="650.0" y="216.0" text-anchor="middle">Inde</text><text class="map-label" x="831.2" y="288.0" text-anchor="middle">Asie du Sud-Est</text><text class="map-label" x="231.2" y="54.0" text-anchor="middle">Europe</text><text class="map-label" x="581.2" y="456.0" text-anchor="middle">Océan Indien</text></g>
</svg>