<svg xmlns="http://www.w3.org/2000/svg" viewBox="0 0 1000 600" preserveAspectRatio="none" role="img" aria-labelledby="title desc">
<title id="title">Europe et Méditerranée</title>
<desc id="desc">Fond cartographique de repérage géographique avec côtes et frontières contemporaines simplifiées.</desc>
<style>
  .sea{fill:#dceff4}
  .graticule{stroke:#7394a0;stroke-opacity:.18;stroke-width:1}
  .country{fill:#f4ead2;stroke:#607786;stroke-width:1.25;vector-effect:non-scaling-stroke}
  .map-label{font-family:Arial,sans-serif;font-size:18px;font-weight:700;fill:#334b5a}
</style>
<rect class="sea" width="1000" height="600"/>
<line class="graticule" x1="44.4" y1="0" x2="44.4" y2="600"/><line class="graticule" x1="266.7" y1="0" x2="266.7" y2="600"/><line class="graticule" x1="488.9" y1="0" x2="488.9" y2="600"/><line class="graticule" x1="711.1" y1="0" x2="711.1" y2="600"/><line class="graticule" x1="933.3" y1="0" x2="933.3" y2="600"/><line class="graticule" x1="0" y1="484.6" x2="1000" y2="484.6"/><line class="graticule" x1="0" y1="253.8" x2="1000" y2="253.8"/><line class="graticule" x1="0" y1="23.1" x2="1000" y2="23.1"/>
<g><path class="country" d="M 1000.00,201.58 L 986.93,201.03 L 981.32,206.28 L 973.02,205.35 L 962.34,182.91 L 966.61,180.75 L 984.54,181.55 L 993.19,176.51 L 986.79,170.35 L 971.81,166.29 L 973.14,162.12 L 964.10,157.91 L 950.17,142.81 L 954.93,136.58 L 952.75,125.75 L 931.03,120.24 L 919.37,123.00 L 916.21,117.27 L 892.82,111.48 L 885.67,97.86 L 883.78,86.67 L 873.07,81.36 L 882.59,74.03 L 876.00,52.51 L 891.82,39.21 L 888.47,35.18 L 913.73,22.43 L 890.44,11.46 L 908.95,0.00 L 1000.00,0.00 L 1000.00,201.58 Z M 771.80,153.98 L 703.57,151.71 L 708.63,141.55 L 739.30,134.07 L 772.39,141.77 L 770.02,148.09 L 771.80,153.98 Z M 987.87,361.67 L 991.80,357.25 L 1000.00,354.29 L 1000.00,365.05 L 987.87,361.67 Z"/><path class="country" d="M 540.01,20.36 L 521.52,36.18 L 511.72,49.47 L 496.81,35.31 L 452.93,62.00 L 423.31,67.41 L 392.57,55.66 L 384.63,30.85 L 380.56,0.00 L 545.52,0.00 L 540.01,20.36 Z"/><path class="country" d="M 414.63,272.26 L 446.65,276.51 L 435.42,292.31 L 432.59,308.76 L 426.49,312.70 L 416.37,310.57 L 417.08,316.44 L 400.83,329.41 L 400.50,339.85 L 411.11,336.24 L 418.75,346.36 L 417.83,352.88 L 424.37,361.54 L 416.67,368.57 L 422.39,386.43 L 434.44,389.36 L 431.89,399.37 L 411.76,412.41 L 367.93,406.16 L 335.56,413.65 L 333.02,427.55 L 307.26,430.54 L 282.26,420.10 L 274.18,425.09 L 233.27,414.60 L 224.41,405.63 L 235.91,391.79 L 240.14,345.81 L 217.21,321.59 L 200.82,309.92 L 166.85,301.04 L 164.61,284.21 L 193.43,279.19 L 230.74,285.13 L 223.70,259.01 L 244.68,268.91 L 296.42,250.91 L 303.09,232.00 L 322.52,227.34 L 325.74,235.46 L 336.07,235.84 L 361.91,255.98 L 373.32,254.18 L 392.76,264.70 L 404.14,266.22 L 414.63,272.26 Z M 475.33,415.15 L 479.11,434.94 L 471.77,452.77 L 461.68,448.07 L 456.54,432.54 L 461.02,423.97 L 475.33,415.15 Z"/><path class="country" d="M 452.81,588.93 L 449.28,566.93 L 453.80,555.08 L 478.00,545.77 L 493.56,548.54 L 492.90,560.21 L 511.75,551.72 L 513.33,556.15 L 502.22,567.46 L 502.07,578.14 L 509.77,583.87 L 507.40,600.00 L 449.76,600.00 L 452.81,588.93 Z"/><path class="country" d="M 218.45,596.11 L 239.81,583.50 L 263.83,579.49 L 277.86,569.97 L 299.26,562.95 L 373.68,556.96 L 384.89,560.39 L 405.82,551.29 L 429.56,551.11 L 438.60,556.48 L 453.80,555.08 L 449.28,566.93 L 452.81,588.93 L 449.76,600.00 L 220.65,600.00 L 218.45,596.11 Z"/><path class="country" d="M 521.52,36.18 L 540.01,20.36 L 545.52,0.00 L 654.76,0.00 L 662.92,8.39 L 684.17,21.19 L 663.76,47.22 L 640.65,52.62 L 632.17,91.36 L 619.55,112.98 L 592.59,110.75 L 580.02,129.05 L 554.29,130.11 L 547.22,108.30 L 528.62,82.11 L 511.72,49.47 L 521.52,36.18 Z"/><path class="country" d="M 916.21,117.27 L 919.37,123.00 L 931.03,120.24 L 952.75,125.75 L 954.93,136.58 L 950.17,142.81 L 964.10,157.91 L 973.14,162.12 L 971.81,166.29 L 986.79,170.35 L 993.19,176.51 L 984.54,181.55 L 966.61,180.75 L 962.34,182.91 L 973.02,205.35 L 953.95,206.71 L 947.10,211.78 L 945.67,223.40 L 936.83,221.17 L 916.78,222.27 L 910.95,216.88 L 902.61,220.90 L 894.26,217.56 L 829.51,209.75 L 812.29,210.27 L 800.11,216.52 L 789.49,217.42 L 789.07,207.15 L 782.21,196.45 L 795.54,191.74 L 795.67,182.54 L 789.50,173.77 L 788.54,163.56 L 810.02,163.71 L 834.14,155.02 L 839.30,141.99 L 857.52,134.60 L 855.43,124.27 L 892.82,111.48 L 916.21,117.27 Z"/><path class="country" d="M 981.32,206.28 L 986.93,201.03 L 1000.00,201.58 L 1000.00,343.17 L 972.09,338.46 L 970.56,329.86 L 949.97,332.70 L 941.72,345.41 L 924.52,362.46 L 914.44,358.50 L 904.00,362.21 L 894.08,357.96 L 899.67,355.46 L 909.64,340.18 L 908.07,336.05 L 912.71,334.21 L 914.90,337.40 L 933.88,336.37 L 929.74,334.03 L 931.31,330.59 L 923.55,324.73 L 920.34,315.08 L 912.24,311.30 L 913.84,303.48 L 903.80,297.27 L 894.66,296.41 L 878.28,289.22 L 848.83,294.90 L 843.24,300.30 L 819.25,306.06 L 808.93,300.42 L 780.94,297.78 L 771.35,302.72 L 769.80,296.53 L 757.46,290.26 L 767.96,274.94 L 772.81,276.29 L 767.08,265.92 L 787.26,246.73 L 798.28,244.04 L 800.67,237.57 L 789.49,217.42 L 800.11,216.52 L 812.29,210.27 L 829.51,209.75 L 894.26,217.56 L 902.61,220.90 L 910.95,216.88 L 916.78,222.27 L 936.83,221.17 L 945.67,223.40 L 947.10,211.78 L 953.95,206.71 L 981.32,206.28 Z"/><path class="country" d="M 789.50,173.77 L 795.67,182.54 L 795.54,191.74 L 782.21,196.45 L 789.07,207.15 L 789.49,217.42 L 800.67,237.57 L 798.28,244.04 L 787.26,246.73 L 767.08,265.92 L 772.81,276.29 L 746.84,266.07 L 730.84,269.34 L 720.35,266.97 L 707.22,271.91 L 696.02,263.73 L 686.88,266.87 L 675.40,254.11 L 658.88,252.71 L 656.77,245.49 L 641.53,242.91 L 638.21,248.87 L 626.14,244.09 L 627.53,237.74 L 610.91,235.74 L 600.38,228.31 L 591.27,213.57 L 593.00,205.62 L 587.50,193.27 L 579.43,185.05 L 585.63,178.89 L 580.44,167.15 L 658.29,141.89 L 680.46,145.79 L 682.14,151.41 L 771.80,153.98 L 783.20,156.45 L 788.54,163.56 L 789.50,173.77 Z"/><path class="country" d="M 642.31,306.58 L 629.79,306.63 L 634.09,311.63 L 622.48,330.38 L 603.05,330.95 L 591.83,336.19 L 541.70,328.44 L 536.74,320.41 L 514.77,324.43 L 512.19,328.81 L 477.33,320.70 L 480.73,315.06 L 479.87,310.96 L 486.58,309.69 L 497.82,316.10 L 500.99,310.01 L 520.59,310.99 L 536.47,306.85 L 547.13,307.56 L 554.06,312.29 L 556.13,308.36 L 552.98,293.33 L 560.96,290.40 L 568.80,279.76 L 585.31,287.19 L 597.81,277.74 L 605.63,276.02 L 622.88,283.06 L 633.32,281.87 L 643.56,286.22 L 642.31,306.58 Z"/><path class="country" d="M 769.80,296.53 L 771.35,302.72 L 757.77,307.56 L 733.82,338.86 L 716.00,343.21 L 702.13,342.19 L 676.80,351.70 L 658.45,347.27 L 634.77,334.53 L 630.46,326.74 L 626.72,326.48 L 634.09,311.63 L 629.79,306.63 L 642.31,306.58 L 643.99,297.15 L 663.49,305.57 L 682.14,302.75 L 683.93,298.11 L 716.42,292.44 L 721.63,287.01 L 728.92,285.60 L 752.72,292.62 L 757.46,290.26 L 769.80,296.53 Z"/><path class="country" d="M 858.21,294.91 L 878.28,289.22 L 894.66,296.41 L 903.80,297.27 L 913.84,303.48 L 912.24,311.30 L 920.34,315.08 L 923.55,324.73 L 931.31,330.59 L 929.74,334.03 L 933.88,336.37 L 914.90,337.40 L 912.71,334.21 L 908.07,336.05 L 909.64,340.18 L 899.67,355.46 L 894.08,357.96 L 890.10,347.43 L 891.73,327.45 L 864.98,297.16 L 858.21,294.91 Z"/><path class="country" d="M 904.00,362.21 L 914.44,358.50 L 924.52,362.46 L 925.03,368.41 L 914.26,373.38 L 907.51,371.22 L 901.29,399.06 L 888.22,396.64 L 872.05,388.25 L 845.89,393.61 L 834.87,399.50 L 802.24,398.28 L 785.16,394.68 L 776.55,396.37 L 766.09,382.86 L 771.24,378.97 L 765.76,376.10 L 758.78,381.27 L 745.82,374.56 L 744.08,365.05 L 730.54,359.62 L 728.05,352.28 L 716.00,343.21 L 733.82,338.86 L 757.77,307.56 L 780.94,297.78 L 808.93,300.42 L 819.25,306.06 L 843.24,300.30 L 848.83,294.90 L 858.21,294.91 L 864.98,297.16 L 891.73,327.45 L 890.10,347.43 L 894.08,357.96 L 904.00,362.21 Z"/><path class="country" d="M 857.52,134.60 L 839.30,141.99 L 834.14,155.02 L 810.02,163.71 L 788.54,163.56 L 783.20,156.45 L 771.80,153.98 L 770.02,148.09 L 772.39,141.77 L 739.30,134.07 L 734.57,114.67 L 760.03,107.59 L 797.29,109.07 L 819.13,106.79 L 822.24,111.59 L 834.07,113.07 L 855.43,124.27 L 857.52,134.60 Z"/><path class="country" d="M 883.78,86.67 L 885.67,97.86 L 892.82,111.48 L 855.43,124.27 L 834.07,113.07 L 822.24,111.59 L 819.13,106.79 L 797.29,109.07 L 760.03,107.59 L 734.57,114.67 L 735.34,97.30 L 746.26,82.80 L 767.21,74.92 L 784.85,92.16 L 802.68,91.71 L 806.95,74.00 L 825.88,69.92 L 854.75,81.31 L 873.07,81.36 L 883.78,86.67 Z"/><path class="country" d="M 888.47,35.18 L 891.82,39.21 L 876.00,52.51 L 882.59,74.03 L 873.07,81.36 L 854.75,81.31 L 825.88,69.92 L 806.95,74.00 L 809.53,60.38 L 801.36,63.29 L 787.26,55.09 L 785.33,41.83 L 841.43,32.05 L 865.54,35.87 L 888.47,35.18 Z"/><path class="country" d="M 585.63,178.89 L 579.43,185.05 L 587.50,193.27 L 593.00,205.62 L 591.27,213.57 L 600.38,228.31 L 590.46,230.72 L 584.60,228.06 L 579.03,232.46 L 538.67,247.70 L 544.91,264.29 L 568.80,279.76 L 560.96,290.40 L 552.98,293.33 L 556.13,308.36 L 554.06,312.29 L 547.13,307.56 L 536.47,306.85 L 520.59,310.99 L 500.99,310.01 L 497.82,316.10 L 486.58,309.69 L 479.87,310.96 L 456.06,303.90 L 451.50,308.92 L 432.59,308.76 L 435.42,292.31 L 446.65,276.51 L 414.63,272.26 L 404.14,266.22 L 405.39,256.10 L 400.96,250.89 L 403.48,235.30 L 399.75,211.12 L 413.10,211.11 L 418.73,202.42 L 424.27,181.29 L 420.11,173.49 L 424.45,168.60 L 443.03,167.35 L 447.15,172.44 L 462.24,161.06 L 457.16,152.41 L 456.14,139.32 L 472.93,142.36 L 487.15,138.85 L 487.55,147.77 L 510.00,153.15 L 509.77,161.34 L 532.36,157.00 L 544.85,150.68 L 569.94,159.80 L 580.44,167.15 L 585.63,178.89 Z"/><path class="country" d="M 776.55,396.37 L 785.16,394.68 L 802.24,398.28 L 834.87,399.50 L 845.89,393.61 L 872.05,388.25 L 888.22,396.64 L 901.29,399.06 L 889.76,408.62 L 881.64,425.13 L 888.82,438.29 L 869.68,435.20 L 847.05,442.46 L 846.80,453.95 L 826.60,456.13 L 810.95,448.06 L 793.16,454.41 L 776.72,453.74 L 775.14,438.48 L 764.01,431.07 L 767.67,427.81 L 765.26,425.07 L 769.00,417.73 L 777.47,410.51 L 766.67,400.55 L 764.68,392.12 L 770.16,386.89 L 776.55,396.37 Z"/><path class="country" d="M 848.11,599.88 L 816.22,600.00 L 816.33,598.04 L 789.22,593.54 L 793.33,583.73 L 805.48,591.51 L 839.32,591.83 L 838.78,595.85 L 850.89,593.08 L 848.11,599.88 Z M 793.16,454.41 L 810.95,448.06 L 826.60,456.13 L 846.80,453.95 L 847.05,442.46 L 857.87,448.57 L 850.99,463.01 L 845.71,465.60 L 820.57,462.76 L 793.66,468.76 L 809.07,481.73 L 797.78,485.49 L 785.40,485.52 L 773.64,473.63 L 769.47,478.69 L 774.44,492.48 L 785.56,503.31 L 777.18,508.36 L 800.56,525.69 L 800.89,538.73 L 780.33,532.62 L 786.89,544.38 L 772.78,546.81 L 781.21,567.17 L 766.45,567.46 L 748.22,557.42 L 736.00,523.61 L 715.95,499.84 L 714.44,493.27 L 724.78,482.08 L 726.11,474.58 L 733.33,471.23 L 733.78,465.17 L 748.31,463.12 L 756.79,458.08 L 768.83,458.53 L 772.48,454.50 L 793.16,454.41 Z"/><path class="country" d="M 989.09,574.44 L 971.10,562.06 L 947.15,561.28 L 942.02,570.85 L 926.67,573.59 L 905.18,561.30 L 880.92,561.72 L 867.75,538.77 L 851.52,525.97 L 862.33,508.02 L 848.24,496.99 L 872.89,474.92 L 907.11,474.00 L 916.44,456.46 L 958.80,459.52 L 985.51,444.55 L 1000.00,440.90 L 1000.00,573.60 L 989.09,574.44 Z M 869.68,435.20 L 888.82,438.29 L 891.46,447.16 L 910.85,454.62 L 906.81,460.27 L 880.42,461.54 L 852.40,481.11 L 845.41,470.36 L 845.71,465.60 L 850.99,463.01 L 857.87,448.57 L 847.05,442.46 L 869.68,435.20 Z"/><path class="country" d="M 733.33,471.23 L 726.11,474.58 L 724.78,482.08 L 714.44,493.27 L 710.67,491.65 L 710.22,486.58 L 697.91,478.83 L 695.98,467.83 L 700.89,444.92 L 697.15,441.29 L 695.66,433.94 L 705.29,422.58 L 706.70,426.92 L 712.68,424.88 L 722.73,433.43 L 724.23,441.80 L 721.40,449.65 L 724.56,459.55 L 733.78,465.17 L 733.33,471.23 Z"/><path class="country" d="M 634.77,334.53 L 658.45,347.27 L 676.80,351.70 L 685.11,348.26 L 697.57,363.77 L 689.01,372.46 L 678.96,367.35 L 663.60,367.67 L 644.49,363.84 L 634.11,364.35 L 629.29,369.14 L 621.32,363.84 L 616.67,373.41 L 632.37,391.36 L 659.44,414.73 L 679.11,423.46 L 676.67,427.38 L 642.89,410.54 L 622.56,403.68 L 603.88,386.70 L 608.36,384.97 L 598.23,375.27 L 597.81,367.48 L 583.53,363.84 L 576.72,373.80 L 570.16,366.07 L 571.45,357.68 L 586.93,358.47 L 591.00,354.58 L 607.28,358.79 L 607.20,352.34 L 614.92,349.98 L 617.08,340.66 L 634.77,334.53 Z"/><path class="country" d="M 480.73,315.06 L 477.33,320.70 L 487.39,324.91 L 498.73,325.53 L 496.96,334.99 L 487.17,338.89 L 470.73,336.00 L 465.92,345.30 L 455.33,346.03 L 451.48,342.38 L 439.02,350.20 L 428.31,351.30 L 418.75,346.36 L 411.11,336.24 L 400.50,339.85 L 400.83,329.41 L 417.08,316.44 L 416.37,310.57 L 426.49,312.70 L 432.59,308.76 L 451.50,308.92 L 456.06,303.90 L 479.87,310.96 L 480.73,315.06 Z"/><path class="country" d="M 405.39,256.10 L 404.14,266.22 L 392.76,264.70 L 395.16,251.76 L 400.96,250.89 L 405.39,256.10 Z"/><path class="country" d="M 400.96,250.89 L 395.16,251.76 L 392.76,264.70 L 373.32,254.18 L 361.91,255.98 L 336.07,235.84 L 325.74,235.46 L 322.52,227.34 L 340.33,222.79 L 356.60,224.60 L 377.20,219.81 L 403.48,235.30 L 400.96,250.89 Z"/><path class="country" d="M 424.27,181.29 L 418.73,202.42 L 413.10,211.11 L 399.75,211.12 L 403.48,235.30 L 377.20,219.81 L 356.60,224.60 L 340.33,222.79 L 351.78,216.45 L 371.24,182.50 L 401.65,172.84 L 420.11,173.49 L 424.27,181.29 Z"/><path class="country" d="M 65.89,441.22 L 83.03,431.99 L 88.60,443.29 L 118.48,441.15 L 124.69,452.73 L 114.42,458.98 L 114.13,476.98 L 110.52,480.36 L 109.63,491.26 L 100.03,493.16 L 108.93,507.00 L 102.80,522.16 L 110.46,529.02 L 99.18,543.95 L 101.03,551.59 L 92.10,557.58 L 80.38,554.33 L 68.91,556.87 L 72.31,538.82 L 70.22,524.63 L 60.28,522.50 L 54.97,513.75 L 56.73,498.64 L 65.59,490.27 L 71.81,467.06 L 65.89,441.22 Z"/><path class="country" d="M 99.18,543.95 L 110.46,529.02 L 102.80,522.16 L 108.93,507.00 L 100.03,493.16 L 109.63,491.26 L 110.52,480.36 L 114.13,476.98 L 114.42,458.98 L 124.69,452.73 L 118.48,441.15 L 88.60,443.29 L 83.03,431.99 L 65.89,441.22 L 67.01,424.78 L 57.94,414.77 L 89.37,398.12 L 170.05,406.07 L 224.41,405.63 L 233.27,414.60 L 274.18,425.09 L 282.26,420.10 L 307.26,430.54 L 333.02,427.55 L 334.21,440.95 L 313.15,456.32 L 284.68,461.20 L 282.70,468.96 L 269.04,481.76 L 260.47,500.54 L 269.14,513.73 L 256.29,524.02 L 251.48,539.02 L 234.70,543.62 L 218.97,561.37 L 169.58,561.28 L 155.66,569.43 L 147.17,578.15 L 136.30,576.24 L 128.07,568.44 L 121.77,555.16 L 101.03,551.59 L 99.18,543.95 Z"/><path class="country" d="M 132.60,181.08 L 115.80,201.69 L 76.41,215.32 L 44.95,211.84 L 62.97,187.74 L 51.37,164.28 L 98.40,135.42 L 102.98,147.79 L 98.40,160.15 L 112.14,159.84 L 128.94,164.59 L 132.60,181.08 Z"/><path class="country" d="M 512.19,328.81 L 514.77,324.43 L 536.74,320.41 L 541.70,328.44 L 573.48,334.40 L 571.07,345.77 L 576.39,355.59 L 558.70,352.23 L 540.64,360.42 L 541.86,371.88 L 539.14,378.45 L 546.43,390.20 L 567.26,401.82 L 578.44,420.90 L 603.17,439.50 L 620.58,439.35 L 626.00,444.45 L 619.76,449.05 L 655.98,464.37 L 675.04,476.41 L 677.34,480.72 L 673.19,488.98 L 660.85,478.21 L 641.55,474.41 L 632.19,489.34 L 648.26,497.89 L 645.62,509.93 L 636.34,511.30 L 624.47,531.09 L 615.20,532.87 L 619.82,513.44 L 624.65,508.51 L 609.19,483.50 L 599.97,480.62 L 593.41,470.66 L 579.13,466.47 L 569.51,457.19 L 553.07,455.70 L 515.38,430.26 L 500.27,416.97 L 493.33,394.15 L 464.20,383.85 L 453.97,386.97 L 441.13,397.68 L 431.89,399.37 L 434.44,389.36 L 422.39,386.43 L 416.67,368.57 L 424.37,361.54 L 417.83,352.88 L 418.75,346.36 L 428.31,351.30 L 439.02,350.20 L 451.48,342.38 L 455.33,346.03 L 465.92,345.30 L 470.73,336.00 L 487.17,338.89 L 496.96,334.99 L 498.73,325.53 L 512.19,328.81 Z M 611.56,525.43 L 603.56,543.60 L 606.89,550.75 L 602.22,562.62 L 585.23,553.92 L 542.91,539.70 L 546.02,527.85 L 572.03,529.96 L 611.56,525.43 Z M 471.33,456.69 L 484.67,473.08 L 481.54,503.60 L 471.44,502.14 L 462.38,509.85 L 453.96,503.73 L 453.07,475.89 L 448.00,462.69 L 460.22,463.85 L 471.33,456.69 Z"/><path class="country" d="M 472.93,142.36 L 456.14,139.32 L 447.12,126.51 L 446.44,102.92 L 456.52,89.77 L 476.10,88.34 L 483.90,81.97 L 501.78,75.46 L 501.02,87.33 L 494.44,94.85 L 497.11,101.31 L 509.16,104.80 L 503.73,113.51 L 497.11,111.00 L 481.11,127.62 L 487.15,138.85 L 472.93,142.36 Z M 548.67,124.38 L 535.33,143.08 L 512.08,130.04 L 508.98,120.46 L 541.58,112.81 L 548.67,124.38 Z"/><path class="country" d="M 112.14,159.84 L 98.40,160.15 L 102.98,147.79 L 98.40,135.42 L 117.03,134.47 L 140.85,148.74 L 128.94,164.59 L 112.14,159.84 Z M 197.95,175.28 L 201.22,161.88 L 186.00,147.35 L 159.02,143.29 L 153.72,137.04 L 161.80,126.73 L 154.49,120.37 L 142.52,131.28 L 141.22,109.04 L 130.00,97.27 L 138.07,73.41 L 155.33,54.69 L 173.08,56.52 L 199.89,54.58 L 176.14,79.55 L 223.13,76.50 L 217.33,95.31 L 197.36,115.99 L 220.33,117.46 L 241.89,147.12 L 257.10,150.82 L 277.11,186.23 L 304.03,190.63 L 301.33,205.38 L 290.01,212.15 L 298.89,224.09 L 278.90,236.18 L 249.17,235.96 L 211.33,242.31 L 200.97,237.76 L 186.28,248.58 L 165.72,245.96 L 150.11,254.77 L 138.30,250.16 L 170.89,225.92 L 190.78,220.94 L 155.90,217.07 L 149.62,207.89 L 172.84,200.74 L 160.67,188.31 L 164.89,173.19 L 197.95,175.28 Z"/><path class="country" d="M 591.83,336.19 L 603.05,330.95 L 622.48,330.38 L 626.72,326.48 L 630.46,326.74 L 634.77,334.53 L 617.08,340.66 L 614.92,349.98 L 607.20,352.34 L 607.28,358.79 L 591.00,354.58 L 586.93,358.47 L 571.45,357.68 L 576.39,355.59 L 571.07,345.77 L 573.48,334.40 L 591.83,336.19 Z"/><path class="country" d="M 890.44,11.46 L 850.11,13.29 L 774.88,26.62 L 762.02,14.03 L 740.49,6.46 L 741.90,0.00 L 908.95,0.00 L 890.44,11.46 Z"/><path class="country" d="M 767.96,274.94 L 757.46,290.26 L 752.72,292.62 L 728.92,285.60 L 721.63,287.01 L 716.42,292.44 L 683.93,298.11 L 682.14,302.75 L 663.49,305.57 L 643.99,297.15 L 641.78,289.15 L 646.71,281.15 L 664.14,279.15 L 669.00,275.91 L 670.46,270.66 L 679.00,265.50 L 686.88,266.87 L 696.02,263.73 L 707.22,271.91 L 720.35,266.97 L 730.84,269.34 L 746.84,266.07 L 767.96,274.94 Z"/><path class="country" d="M 610.91,235.74 L 627.53,237.74 L 626.14,244.09 L 638.21,248.87 L 641.53,242.91 L 656.77,245.49 L 658.88,252.71 L 675.40,254.11 L 685.63,265.47 L 679.00,265.50 L 670.46,270.66 L 669.00,275.91 L 664.14,279.15 L 646.71,281.15 L 643.56,286.22 L 633.32,281.87 L 622.88,283.06 L 605.63,276.02 L 597.81,277.74 L 585.31,287.19 L 544.91,264.29 L 538.67,247.70 L 579.03,232.46 L 584.60,228.06 L 590.46,230.72 L 600.38,228.31 L 610.91,235.74 Z"/><path class="country" d="M 995.61,596.64 L 998.82,591.08 L 1000.00,591.10 L 1000.00,597.39 L 995.61,596.64 Z"/><path class="country" d="M 983.48,597.62 L 1000.00,600.00 L 984.82,600.00 L 983.48,597.62 Z"/><path class="country" d="M 220.65,600.00 L 125.81,600.00 L 134.89,582.46 L 151.25,582.57 L 164.64,592.37 L 185.78,590.77 L 218.45,596.11 L 220.65,600.00 Z"/><path class="country" d="M 659.44,414.73 L 632.37,391.36 L 616.67,373.41 L 621.32,363.84 L 629.29,369.14 L 634.11,364.35 L 644.49,363.84 L 663.60,367.67 L 678.96,367.35 L 689.01,372.46 L 697.07,372.39 L 691.50,382.54 L 702.22,391.42 L 698.98,402.27 L 682.37,410.77 L 679.11,423.46 L 659.44,414.73 Z"/><path class="country" d="M 775.14,438.48 L 776.72,453.74 L 768.83,458.53 L 756.79,458.08 L 748.31,463.12 L 733.78,465.17 L 724.56,459.55 L 721.40,449.65 L 728.05,437.26 L 741.17,433.69 L 764.01,431.07 L 775.14,438.48 Z"/><path class="country" d="M 685.11,348.26 L 702.13,342.19 L 716.00,343.21 L 728.05,352.28 L 730.54,359.62 L 744.08,365.05 L 745.82,374.56 L 758.78,381.27 L 765.76,376.10 L 771.24,378.97 L 766.09,382.86 L 770.16,386.89 L 764.68,392.12 L 766.67,400.55 L 777.47,410.51 L 769.00,417.73 L 765.26,425.07 L 767.67,427.81 L 764.01,431.07 L 746.15,432.80 L 750.56,422.71 L 729.21,409.11 L 725.22,410.38 L 722.15,418.05 L 716.84,419.71 L 718.66,417.73 L 693.74,403.30 L 698.98,402.27 L 702.22,391.42 L 691.50,382.54 L 697.07,372.39 L 689.01,372.46 L 697.57,363.77 L 685.11,348.26 Z"/><path class="country" d="M 706.70,426.92 L 705.29,422.58 L 695.66,433.94 L 697.15,441.29 L 676.67,427.38 L 682.37,410.77 L 693.74,403.30 L 718.66,417.73 L 712.68,424.88 L 706.70,426.92 Z"/><path class="country" d="M 722.73,433.43 L 712.68,424.88 L 722.15,418.05 L 725.22,410.38 L 729.21,409.11 L 750.56,422.71 L 746.15,432.80 L 728.05,437.26 L 727.05,441.99 L 724.23,441.80 L 722.73,433.43 Z"/></g>
<g><text class="map-label" x="200.0" y="161.5" text-anchor="middle">Royaume-Uni</text><text class="map-label" x="311.1" y="334.6" text-anchor="middle">France</text><text class="map-label" x="500.0" y="230.8" text-anchor="middle">Allemagne</text><text class="map-label" x="544.4" y="426.9" text-anchor="middle">Italie</text><text class="map-label" x="711.1" y="392.3" text-anchor="middle">Balkans</text><text class="map-label" x="177.8" y="484.6" text-anchor="middle">Espagne</text></g>
</svg>