<svg xmlns="http://www.w3.org/2000/svg" viewBox="0 0 1000 600" preserveAspectRatio="none" role="img" aria-labelledby="title desc">
<title id="title">France et Algérie</title>
<desc id="desc">Fond cartographique de repérage géographique avec côtes et frontières contemporaines simplifiées.</desc>
<style>
  .sea{fill:#dceff4}
  .graticule{stroke:#7394a0;stroke-opacity:.18;stroke-width:1}
  .country{fill:#f4ead2;stroke:#607786;stroke-width:1.25;vector-effect:non-scaling-stroke}
  .map-label{font-family:Arial,sans-serif;font-size:18px;font-weight:700;fill:#334b5a}
</style>
<rect class="sea" width="1000" height="600"/>
<line class="graticule" x1="416.7" y1="0" x2="416.7" y2="600"/><line class="graticule" x1="833.3" y1="0" x2="833.3" y2="600"/><line class="graticule" x1="0" y1="339.1" x2="1000" y2="339.1"/><line class="graticule" x1="0" y1="78.3" x2="1000" y2="78.3"/>
<g><path class="country" d="M 694.09,99.08 L 754.14,103.88 L 733.07,121.75 L 727.78,140.33 L 716.34,144.79 L 697.36,142.39 L 698.70,149.02 L 668.22,163.68 L 667.61,175.49 L 687.50,171.40 L 701.82,182.84 L 700.10,190.21 L 712.36,200.01 L 697.91,207.95 L 708.65,228.14 L 731.23,231.45 L 726.47,242.77 L 688.72,257.51 L 606.54,250.44 L 545.85,258.91 L 541.08,274.62 L 492.78,278.00 L 445.90,266.20 L 430.75,271.84 L 354.05,259.98 L 337.44,249.84 L 358.99,234.19 L 366.93,182.22 L 323.93,154.84 L 293.20,141.64 L 229.52,131.61 L 225.32,112.59 L 279.34,106.91 L 349.31,113.62 L 336.10,84.10 L 375.44,95.29 L 472.45,74.94 L 484.96,53.57 L 521.40,48.30 L 527.43,57.47 L 546.80,57.90 L 595.25,80.67 L 616.63,78.64 L 653.09,90.54 L 674.43,92.25 L 694.09,99.08 Z M 807.92,260.61 L 815.00,282.98 L 801.24,303.13 L 782.32,297.82 L 772.68,280.26 L 781.08,270.57 L 807.92,260.61 Z"/><path class="country" d="M 793.98,545.15 L 768.30,534.62 L 767.94,528.30 L 733.86,512.76 L 730.19,493.11 L 755.87,478.56 L 765.68,457.05 L 759.08,432.18 L 767.54,418.79 L 812.92,408.26 L 842.08,411.39 L 840.86,424.59 L 876.20,414.99 L 879.17,420.00 L 858.33,432.78 L 858.05,444.85 L 872.48,451.33 L 866.99,473.91 L 839.57,487.02 L 847.49,501.24 L 869.03,501.69 L 879.52,514.09 L 895.37,518.17 L 893.01,538.20 L 831.26,564.10 L 835.69,574.91 L 832.08,585.93 L 811.76,591.98 L 793.98,545.15 Z"/><path class="country" d="M 198.24,599.99 L 214.18,586.93 L 262.90,576.60 L 264.69,557.29 L 288.79,555.01 L 307.64,545.36 L 362.17,540.97 L 369.81,530.83 L 358.83,525.29 L 344.44,497.75 L 341.96,481.88 L 326.25,465.17 L 366.31,450.92 L 411.36,446.38 L 437.66,435.62 L 477.79,427.68 L 617.32,420.91 L 638.34,424.79 L 677.58,414.50 L 722.10,414.30 L 739.04,420.37 L 767.54,418.79 L 759.08,432.18 L 765.68,457.05 L 755.87,478.56 L 730.19,493.11 L 733.86,512.76 L 767.94,528.30 L 768.30,534.62 L 793.98,545.15 L 816.45,600.00 L 198.24,599.99 Z"/><path class="country" d="M 1000.00,169.80 L 932.35,162.59 L 923.05,153.51 L 881.87,158.05 L 877.02,163.01 L 811.67,153.84 L 818.04,147.45 L 816.43,142.82 L 829.00,141.39 L 850.09,148.63 L 856.02,141.75 L 892.77,142.86 L 922.56,138.18 L 942.53,138.98 L 955.53,144.32 L 959.41,139.89 L 953.50,122.89 L 968.47,119.58 L 983.16,107.55 L 1000.00,112.12 L 1000.00,169.80 Z"/><path class="country" d="M 972.42,59.13 L 956.95,65.63 L 926.67,71.31 L 938.38,90.07 L 983.16,107.55 L 968.47,119.58 L 953.50,122.89 L 959.41,139.89 L 955.53,144.32 L 942.53,138.98 L 922.56,138.18 L 892.77,142.86 L 856.02,141.75 L 850.09,148.63 L 829.00,141.39 L 816.43,142.82 L 771.78,134.85 L 763.22,140.52 L 727.78,140.33 L 733.07,121.75 L 754.14,103.88 L 694.09,99.08 L 674.43,92.25 L 676.78,80.81 L 668.46,74.92 L 673.19,57.29 L 666.19,29.96 L 691.22,29.95 L 701.79,20.13 L 710.54,0.00 L 1000.00,0.00 L 1000.00,54.48 L 972.42,59.13 Z"/><path class="country" d="M 998.01,213.86 L 985.71,205.12 L 988.13,195.64 L 1000.00,196.01 L 998.01,213.86 Z"/><path class="country" d="M 818.04,147.45 L 811.67,153.84 L 830.52,158.59 L 851.78,159.30 L 848.47,169.99 L 830.12,174.39 L 799.29,171.12 L 790.26,181.65 L 770.41,182.47 L 763.19,178.34 L 739.83,187.19 L 719.74,188.43 L 701.82,182.84 L 687.50,171.40 L 667.61,175.49 L 668.22,163.68 L 698.70,149.02 L 697.36,142.39 L 716.34,144.79 L 727.78,140.33 L 763.22,140.52 L 771.78,134.85 L 816.43,142.82 L 818.04,147.45 Z"/><path class="country" d="M 676.78,80.81 L 674.43,92.25 L 653.09,90.54 L 657.60,75.90 L 668.46,74.92 L 676.78,80.81 Z"/><path class="country" d="M 668.46,74.92 L 657.60,75.90 L 653.09,90.54 L 616.63,78.64 L 595.25,80.67 L 546.80,57.90 L 527.43,57.47 L 521.40,48.30 L 554.79,43.15 L 585.29,45.20 L 623.92,39.78 L 673.19,57.29 L 668.46,74.92 Z"/><path class="country" d="M 701.79,20.13 L 691.22,29.95 L 666.19,29.96 L 673.19,57.29 L 623.92,39.78 L 585.29,45.20 L 554.79,43.15 L 576.26,35.99 L 610.47,0.00 L 710.54,0.00 L 701.79,20.13 Z"/><path class="country" d="M 40.22,290.07 L 72.34,279.64 L 82.78,292.41 L 138.81,290.00 L 150.45,303.08 L 131.20,310.15 L 130.67,330.50 L 123.90,334.32 L 122.23,346.65 L 104.22,348.79 L 120.92,364.43 L 109.41,381.57 L 123.78,389.33 L 102.62,406.20 L 106.09,414.84 L 89.35,421.61 L 67.38,417.94 L 45.88,420.81 L 52.25,400.40 L 48.33,384.36 L 29.69,381.95 L 19.73,372.07 L 23.04,354.99 L 39.65,345.52 L 51.30,319.29 L 40.22,290.07 Z"/><path class="country" d="M 102.62,406.20 L 123.78,389.33 L 109.41,381.57 L 120.92,364.43 L 104.22,348.79 L 122.23,346.65 L 123.90,334.32 L 130.67,330.50 L 131.20,310.15 L 150.45,303.08 L 138.81,290.00 L 82.78,292.41 L 72.34,279.64 L 40.22,290.07 L 42.32,271.49 L 25.30,260.18 L 84.24,241.35 L 235.51,250.34 L 337.44,249.84 L 354.05,259.98 L 430.75,271.84 L 445.90,266.20 L 492.78,278.00 L 541.08,274.62 L 543.31,289.77 L 503.83,307.15 L 450.44,312.66 L 446.72,321.44 L 421.11,335.90 L 405.05,357.13 L 421.30,372.04 L 397.20,383.68 L 388.19,400.63 L 356.73,405.83 L 327.23,425.89 L 234.63,425.80 L 208.53,435.01 L 192.62,444.86 L 172.23,442.70 L 156.80,433.89 L 144.99,418.88 L 106.09,414.84 L 102.62,406.20 Z"/><path class="country" d="M 133.80,19.30 L 59.93,34.71 L 0.95,30.77 L 34.74,3.53 L 31.84,0.00 L 159.89,0.00 L 133.80,19.30 Z"/><path class="country" d="M 877.02,163.01 L 881.87,158.05 L 923.05,153.51 L 932.35,162.59 L 991.94,169.32 L 987.42,182.17 L 997.40,193.28 L 964.23,189.48 L 930.36,198.74 L 932.66,211.69 L 927.56,219.12 L 941.22,232.40 L 980.29,245.54 L 1000.00,265.83 L 1000.00,317.15 L 984.50,308.13 L 953.67,306.44 L 883.00,277.68 L 854.66,262.66 L 841.67,236.87 L 787.04,225.23 L 767.86,228.75 L 743.78,240.86 L 726.47,242.77 L 731.23,231.45 L 708.65,228.14 L 697.91,207.95 L 712.36,200.01 L 700.10,190.21 L 701.82,182.84 L 719.74,188.43 L 739.83,187.19 L 763.19,178.34 L 770.41,182.47 L 790.26,181.65 L 799.29,171.12 L 830.12,174.39 L 848.47,169.99 L 851.78,159.30 L 877.02,163.01 Z M 1000.00,415.62 L 934.63,401.40 L 940.46,388.01 L 1000.00,389.67 L 1000.00,415.62 Z M 800.42,307.57 L 825.42,326.09 L 819.56,360.59 L 800.62,358.94 L 783.62,367.65 L 767.85,360.73 L 766.18,329.26 L 756.67,314.35 L 779.58,315.65 L 800.42,307.57 Z"/><path class="country" d="M 436.25,1.83 L 486.73,6.80 L 481.67,23.48 L 460.44,31.13 L 477.08,44.62 L 439.60,58.29 L 383.85,58.04 L 312.92,65.22 L 293.49,60.08 L 265.94,72.30 L 227.40,69.34 L 198.12,79.30 L 175.98,74.10 L 237.08,46.70 L 274.38,41.06 L 208.98,36.69 L 197.20,26.31 L 240.74,18.23 L 217.92,4.17 L 219.85,0.00 L 436.25,1.83 Z"/><path class="country" d="M 1000.00,169.80 L 1000.00,196.01 L 988.13,195.64 L 997.40,193.28 L 987.42,182.17 L 991.94,169.32 L 1000.00,169.80 Z"/><path class="country" d="M 1000.00,112.12 L 938.38,90.07 L 926.67,71.31 L 1000.00,54.48 L 1000.00,112.12 Z"/><path class="country" d="M 341.96,481.88 L 344.44,497.75 L 358.83,525.29 L 369.81,530.83 L 362.17,540.97 L 307.64,545.36 L 288.79,555.01 L 264.69,557.29 L 262.90,576.60 L 214.18,586.93 L 198.19,600.00 L 17.58,600.00 L 7.72,569.28 L 29.14,533.10 L 55.94,515.47 L 128.64,492.77 L 169.58,449.74 L 200.26,449.86 L 225.37,460.94 L 265.00,459.13 L 326.25,465.17 L 341.96,481.88 Z"/><path class="country" d="M 811.76,591.98 L 832.08,585.93 L 835.69,574.91 L 831.26,564.10 L 893.01,538.20 L 895.37,518.17 L 944.30,527.14 L 961.80,524.90 L 1000.00,529.97 L 1000.00,600.00 L 816.45,600.00 L 811.76,591.98 Z"/></g>
<g><text class="map-label" x="508.3" y="174.8" text-anchor="middle">France</text><text class="map-label" x="520.8" y="529.6" text-anchor="middle">Algérie</text><text class="map-label" x="270.8" y="333.9" text-anchor="middle">Espagne</text><text class="map-label" x="895.8" y="255.7" text-anchor="middle">Italie</text><text class="map-label" x="625.0" y="404.3" text-anchor="middle">Méditerranée</text></g>
</svg>